<svg id="Layer_1" data-name="Layer 1" xmlns="http://www.w3.org/2000/svg" viewBox="0 0 510 569"><defs><style>.cls-1{fill:#f5f5f5;}.cls-2{fill:#ba68c8;}.cls-12,.cls-13,.cls-21,.cls-24,.cls-3,.cls-6{fill:#fff;}.cls-10,.cls-12,.cls-13,.cls-18,.cls-21,.cls-22,.cls-23,.cls-24,.cls-3,.cls-9{isolation:isolate;}.cls-22,.cls-3,.cls-9{opacity:0.2;}.cls-4{fill:#e0e0e0;}.cls-5{fill:#f0f0f0;}.cls-7{fill:#ebebeb;}.cls-8{opacity:0.15;}.cls-10,.cls-21{opacity:0.1;}.cls-11{fill:#455a64;}.cls-12,.cls-18{opacity:0.3;}.cls-13,.cls-23{opacity:0.4;}.cls-14{opacity:0.7;}.cls-15{opacity:0.5;}.cls-16{fill:#37474f;}.cls-17{fill:#ffa8a7;}.cls-19{fill:#f28f8f;}.cls-20{fill:#263238;}.cls-24{opacity:0.6;}.cls-25{fill:#272525;}.cls-26{font-size:29.04px;font-family:RimouskiSb-Regular, Rimouski;}.cls-26,.cls-27{fill:#262262;}.cls-27{stroke:#231f20;stroke-miterlimit:10;stroke-width:0.25px;}</style></defs><g id="freepik--Floor--inject-69"><path class="cls-1" d="M421.08,297.21c-88.41-51-231.28-51-319.12,0S14.63,431,103.08,482.06s231.28,51,319.12,0S509.53,348.25,421.08,297.21Z"/></g><polygon class="cls-2" points="81.16 193.42 81.16 363.98 273.69 252.93 273.69 81.82 81.16 193.42"/><polygon class="cls-3" points="81.16 193.42 81.16 363.98 273.69 252.93 273.69 81.82 81.16 193.42"/><g id="freepik--Shadows--inject-69"><path class="cls-4" d="M275,331c19.49-11.24,51-11.24,70.34,0s19.26,29.51-.23,40.75-51,11.25-70.35,0S255.54,342.29,275,331Z"/><path class="cls-4" d="M38.82,381.54c7.1-4.09,18.59-4.09,25.65,0s7,10.76-.09,14.87-18.59,4.09-25.64,0S31.73,385.65,38.82,381.54Z"/><path class="cls-4" d="M456.24,373.5c7.45-4.35,19.49-4.35,26.89,0s7.36,11.27-.08,15.57-19.5,4.35-26.9,0S448.78,377.8,456.24,373.5Z"/><path class="cls-4" d="M42.67,420.78a1.4,1.4,0,0,0,0,2.66l10.33,6a5,5,0,0,0,4.6,0L271.91,305.71a1.4,1.4,0,0,0,0-2.66l-10.33-6a5.06,5.06,0,0,0-4.61,0Z"/><path class="cls-4" d="M417.44,439.51c-19.67-11.35-51.44-11.35-71,0s-19.43,29.77.23,41.12,51.49,11.38,71.05,0S437.11,450.86,417.44,439.51Z"/><path class="cls-4" d="M144.34,462.53c21.33-12.31,55.78-12.31,77,0s21.07,32.27-.25,44.54-55.77,12.31-77,0S123,474.84,144.34,462.53Z"/></g><g id="freepik--Window--inject-69"><polygon class="cls-1" points="364.16 108.14 368.21 105.78 411.05 130.42 411.05 135.1 364.16 108.14"/><polygon class="cls-4" points="364.16 108.14 364.16 108.14 364.16 108.14 411.05 135.1 411.05 140.46 364.15 113.52 364.16 108.14"/><rect class="cls-4" x="387.62" y="94.59" height="54.09"/><polygon class="cls-1" points="435.53 149.19 439.58 146.84 482.42 171.47 482.42 176.17 435.53 149.19"/><polygon class="cls-4" points="435.53 149.19 435.53 149.19 435.53 149.19 482.42 176.17 482.42 181.51 435.52 154.57 435.53 149.19"/><rect class="cls-4" x="458.99" y="135.65" height="54.09"/><polygon class="cls-5" points="364.39 63.12 368.44 60.77 368.2 182.04 364.15 184.4 364.39 63.12"/><polygon class="cls-1" points="364.15 184.4 368.2 182.04 414.86 208.83 410.81 211.18 364.15 184.4"/><path class="cls-4" d="M359.74,55.06l56,32.17-.26,132-56-32.17ZM410.8,211.18,411,89.9,364.32,63.12l-.24,121.28,46.66,26.78"/><polygon class="cls-1" points="359.74 55.06 363.79 52.72 419.77 84.88 415.72 87.24 359.74 55.06"/><polygon class="cls-5" points="415.72 87.24 419.77 84.88 419.51 216.88 415.46 219.23 415.72 87.24"/><polygon class="cls-5" points="435.76 104.18 439.81 101.82 439.57 223.1 435.52 225.46 435.76 104.18"/><polygon class="cls-1" points="435.52 225.46 439.57 223.1 486.23 249.88 482.18 252.24 435.52 225.46"/><path class="cls-4" d="M431.11,96.13l56,32.16-.26,132-56-32.17Zm51.06,156.11L482.41,131,435.76,104.2l-.24,121.28,46.66,26.78"/><polygon class="cls-1" points="431.11 96.13 435.16 93.77 491.14 125.93 487.09 128.29 431.11 96.13"/><polygon class="cls-5" points="487.09 128.29 491.14 125.93 490.88 257.93 486.83 260.29 487.09 128.29"/></g><g id="freepik--Plants--inject-69"><path class="cls-6" d="M34.41,358l17.2.5L68.8,358c.74,11.61-1.52,23.45-4.65,29.23h0a7.84,7.84,0,0,1-3.41,3.47c-5.07,2.92-13.27,2.92-18.31,0A7.64,7.64,0,0,1,39,387.1C35.91,381.27,33.67,369.51,34.41,358Z"/><path class="cls-7" d="M39.48,350.9c-6.73,3.89-6.78,10.2-.07,14.12s17.57,3.89,24.32,0,6.77-10.2.07-14.12S46.21,347,39.48,350.9Z"/><path class="cls-4" d="M42.14,352.45c-5.25,3-5.28,8,0,11s13.71,3,19,0,5.29-8,.07-11S47.4,349.41,42.14,352.45Z"/><g class="cls-8"><path d="M42.14,352.45c-5.25,3-5.28,8,0,11s13.71,3,19,0,5.29-8,.07-11S47.4,349.41,42.14,352.45Z"/></g><path class="cls-2" d="M23.33,284.53c38.76,12.68,39.11,38.61,30.42,57.08-2.18,3.74-8.88,5.75-14.68-17.23l10.18,1.32-11.86-6-3.13-9.18,9.88.74L31.6,306A184.09,184.09,0,0,0,23.33,284.53Z"/><path class="cls-9" d="M23.33,284.53c38.76,12.68,39.11,38.61,30.42,57.08-2.18,3.74-8.88,5.75-14.68-17.23l10.18,1.32-11.86-6-3.13-9.18,9.88.74L31.6,306A184.09,184.09,0,0,0,23.33,284.53Z"/><path class="cls-3" d="M23.33,284.53c38.76,12.68,39.11,38.61,30.42,57.08-2.18,3.74-8.88,5.75-14.68-17.23l10.18,1.32-11.86-6-3.13-9.18,9.88.74L31.6,306A184.09,184.09,0,0,0,23.33,284.53Z"/><path class="cls-6" d="M34.26,291c20.43,15.53,22.28,33.31,16.51,51.88C52.84,326.56,55.05,310,34.26,291Z"/><path class="cls-2" d="M89,310.89C50.77,316.32,46.13,340.36,51.2,359c1.44,3.85,7.31,6.83,16.54-13.6l-9.7-.47,12.07-3.63,4.34-8.06-9.3-.93,12.56-2.86A176.11,176.11,0,0,1,89,310.89Z"/><path class="cls-3" d="M89,310.89C50.77,316.32,46.13,340.36,51.2,359c1.44,3.85,7.31,6.83,16.54-13.6l-9.7-.47,12.07-3.63,4.34-8.06-9.3-.93,12.56-2.86A176.11,176.11,0,0,1,89,310.89Z"/><path class="cls-10" d="M89,310.89C50.77,316.32,46.13,340.36,51.2,359c1.44,3.85,7.31,6.83,16.54-13.6l-9.7-.47,12.07-3.63,4.34-8.06-9.3-.93,12.56-2.86A176.11,176.11,0,0,1,89,310.89Z"/><path class="cls-6" d="M77.71,315.12c-21.62,11-26.29,27.31-24,45.56C54.51,345.11,55.2,329.35,77.71,315.12Z"/><path class="cls-2" d="M12.14,319.92c35,.57,41.91,21.72,39.43,39.11-.86,3.71-5.82,7-16.42-10.41l8.69-1.52-11.27-1.93-4.83-6.73,8.3-1.9-11.65-1.15A158.76,158.76,0,0,0,12.14,319.92Z"/><path class="cls-6" d="M22.79,322.46C43.5,330,49.54,344.13,49.51,360.84,47,346.9,44.65,332.77,22.79,322.46Z"/><path class="cls-3" d="M12.14,319.92c35,.57,41.91,21.72,39.43,39.11-.86,3.71-5.82,7-16.42-10.41l8.69-1.52-11.27-1.93-4.83-6.73,8.3-1.9-11.65-1.15A158.76,158.76,0,0,0,12.14,319.92Z"/><path class="cls-6" d="M451.6,348.75l18,.52,18-.52c.79,12.18-1.59,24.59-4.87,30.65h0a8.21,8.21,0,0,1-3.58,3.63c-5.32,3.08-13.92,3.08-19.2,0a8,8,0,0,1-3.58-3.72C453.18,373.21,450.83,360.87,451.6,348.75Z"/><path class="cls-7" d="M456.93,341.36c-7.07,4.08-7.1,10.69-.09,14.78s18.47,4.08,25.51,0,7.11-10.7.09-14.78S464,337.28,456.93,341.36Z"/><path class="cls-4" d="M459.72,343c-5.51,3.18-5.54,8.34-.06,11.53s14.38,3.19,19.9,0,5.54-8.35.06-11.53S465.23,339.8,459.72,343Z"/><g class="cls-8"><path d="M459.72,343c-5.51,3.18-5.54,8.34-.06,11.53s14.38,3.19,19.9,0,5.54-8.35.06-11.53S465.23,339.8,459.72,343Z"/></g><path class="cls-2" d="M478.84,311.84c2.94-3.65,6.34-6.92,9-10.75,1.84-2.62,3.37-5.81,2.6-8.91a8,8,0,0,0-6.32-5.56,12.13,12.13,0,0,0-8.47,1.89,26.17,26.17,0,0,0-6.41,6.1,63.64,63.64,0,0,0-13.4,45.45,9.46,9.46,0,0,0,1.67,5.22,5.2,5.2,0,0,0,5.43,1.65c4.92-1.45,4.27-8.09,5.07-12a54.27,54.27,0,0,1,10.87-23.09Z"/><path class="cls-3" d="M478.84,311.84c2.94-3.65,6.34-6.92,9-10.75,1.84-2.62,3.37-5.81,2.6-8.91a8,8,0,0,0-6.32-5.56,12.13,12.13,0,0,0-8.47,1.89,26.17,26.17,0,0,0-6.41,6.1,63.64,63.64,0,0,0-13.4,45.45,9.46,9.46,0,0,0,1.67,5.22,5.2,5.2,0,0,0,5.43,1.65c4.92-1.45,4.27-8.09,5.07-12a54.27,54.27,0,0,1,10.87-23.09Z"/><path class="cls-5" d="M462.62,342a.43.43,0,0,0,.35-.4c.35-7.9,2.91-34.76,21.47-50.09a.43.43,0,0,0,.12-.6.42.42,0,0,0-.6-.12.21.21,0,0,0-.08.06c-18.82,15.5-21.42,42.73-21.72,50.71a.41.41,0,0,0,.4.44h.06Z"/><path class="cls-2" d="M459.92,342.84a13.1,13.1,0,0,0,6,8.35,16.82,16.82,0,0,0,9.11,1.53,39.85,39.85,0,0,0,9.26-2.17c1.49-.5,3.14-1.18,3.26-3a3.23,3.23,0,0,0-1.09-2.59,9.53,9.53,0,0,0-1-.83.94.94,0,0,1-.2-1.32,1,1,0,0,1,.71-.39,23,23,0,0,0,2.63-.32,11.73,11.73,0,0,0,5.54-2.51,9.19,9.19,0,0,0,2.56-3.79c.45-1.24.57-2.79-.36-3.72a4.11,4.11,0,0,0-2.06-.89c-.66-.14-1.32-.26-2-.37a.88.88,0,0,1-.74-1,.9.9,0,0,1,.54-.68L495,328a5.38,5.38,0,0,0,2.18-1.32,4.63,4.63,0,0,0,.53-3.85c-.34-1.76-1-3.45-1.36-5.19a11.05,11.05,0,0,1-.18-5.3,45,45,0,0,0-15.68,1.09,11.24,11.24,0,0,0-4.28,1.87c-1.74,1.4-2.17,3.5-2,5.77a.4.4,0,0,1-.76.2L471.6,318a2.19,2.19,0,0,0-2.78-.89,13.08,13.08,0,0,0-4.09,3.26,7.12,7.12,0,0,0-1.75,5.24,44.52,44.52,0,0,0,1.31,7.68.72.72,0,0,1-1.09.75l-.08-.07a2.43,2.43,0,0,0-1.69-.49c-1.58.2-2,1.81-2.09,3.16A26.59,26.59,0,0,0,459.92,342.84Z"/><path class="cls-9" d="M459.92,342.84a13.1,13.1,0,0,0,6,8.35,16.82,16.82,0,0,0,9.11,1.53,39.85,39.85,0,0,0,9.26-2.17c1.49-.5,3.14-1.18,3.26-3a3.23,3.23,0,0,0-1.09-2.59,9.53,9.53,0,0,0-1-.83.94.94,0,0,1-.2-1.32,1,1,0,0,1,.71-.39,23,23,0,0,0,2.63-.32,11.73,11.73,0,0,0,5.54-2.51,9.19,9.19,0,0,0,2.56-3.79c.45-1.24.57-2.79-.36-3.72a4.11,4.11,0,0,0-2.06-.89c-.66-.14-1.32-.26-2-.37a.88.88,0,0,1-.74-1,.9.9,0,0,1,.54-.68L495,328a5.38,5.38,0,0,0,2.18-1.32,4.63,4.63,0,0,0,.53-3.85c-.34-1.76-1-3.45-1.36-5.19a11.05,11.05,0,0,1-.18-5.3,45,45,0,0,0-15.68,1.09,11.24,11.24,0,0,0-4.28,1.87c-1.74,1.4-2.17,3.5-2,5.77a.4.4,0,0,1-.76.2L471.6,318a2.19,2.19,0,0,0-2.78-.89,13.08,13.08,0,0,0-4.09,3.26,7.12,7.12,0,0,0-1.75,5.24,44.52,44.52,0,0,0,1.31,7.68.72.72,0,0,1-1.09.75l-.08-.07a2.43,2.43,0,0,0-1.69-.49c-1.58.2-2,1.81-2.09,3.16A26.59,26.59,0,0,0,459.92,342.84Z"/><path class="cls-3" d="M459.92,342.84a13.1,13.1,0,0,0,6,8.35,16.82,16.82,0,0,0,9.11,1.53,39.85,39.85,0,0,0,9.26-2.17c1.49-.5,3.14-1.18,3.26-3a3.23,3.23,0,0,0-1.09-2.59,9.53,9.53,0,0,0-1-.83.94.94,0,0,1-.2-1.32,1,1,0,0,1,.71-.39,23,23,0,0,0,2.63-.32,11.73,11.73,0,0,0,5.54-2.51,9.19,9.19,0,0,0,2.56-3.79c.45-1.24.57-2.79-.36-3.72a4.11,4.11,0,0,0-2.06-.89c-.66-.14-1.32-.26-2-.37a.88.88,0,0,1-.74-1,.9.9,0,0,1,.54-.68L495,328a5.38,5.38,0,0,0,2.18-1.32,4.63,4.63,0,0,0,.53-3.85c-.34-1.76-1-3.45-1.36-5.19a11.05,11.05,0,0,1-.18-5.3,45,45,0,0,0-15.68,1.09,11.24,11.24,0,0,0-4.28,1.87c-1.74,1.4-2.17,3.5-2,5.77a.4.4,0,0,1-.76.2L471.6,318a2.19,2.19,0,0,0-2.78-.89,13.08,13.08,0,0,0-4.09,3.26,7.12,7.12,0,0,0-1.75,5.24,44.52,44.52,0,0,0,1.31,7.68.72.72,0,0,1-1.09.75l-.08-.07a2.43,2.43,0,0,0-1.69-.49c-1.58.2-2,1.81-2.09,3.16A26.59,26.59,0,0,0,459.92,342.84Z"/><path class="cls-5" d="M468.23,350.79a62.83,62.83,0,0,1,4.21-12.22.47.47,0,0,1,.16-.33c.09-.2.18-.42.29-.63a39.63,39.63,0,0,0-4.18-14,.43.43,0,0,1,.2-.58.44.44,0,0,1,.55.15,40.2,40.2,0,0,1,4.11,13c3.57-7.14,9.26-15.52,18.05-21.63a.43.43,0,0,1,.6.1.44.44,0,0,1-.1.6h0c-9.07,6.31-14.79,15.06-18.26,22.31a26.23,26.23,0,0,1,14.93-2,.43.43,0,0,1,0,.84h-.16c-.08,0-8.29-1.5-15.37,2.47a61.45,61.45,0,0,0-4.19,12.1.42.42,0,0,1-.34.33h-.16a.44.44,0,0,1-.35-.51Z"/></g><path class="cls-11" d="M274.71,298.12a13.54,13.54,0,0,1-12.24,0,4.35,4.35,0,0,1-2.55-3.55h0v5a4.33,4.33,0,0,0,2.55,3.54,13.47,13.47,0,0,0,12.24,0,4.26,4.26,0,0,0,2.51-3.54v-5A4.29,4.29,0,0,1,274.71,298.12Z"/><path class="cls-11" d="M262.47,298.12a13.54,13.54,0,0,0,12.24,0,4.29,4.29,0,0,0,2.51-3.55c0-1.28-.86-2.56-2.55-3.55a13.52,13.52,0,0,0-12.23,0,3.75,3.75,0,0,0,0,7.1Z"/><path class="cls-12" d="M262.47,298.12a13.54,13.54,0,0,0,12.24,0,4.29,4.29,0,0,0,2.51-3.55c0-1.28-.86-2.56-2.55-3.55a13.52,13.52,0,0,0-12.23,0,3.75,3.75,0,0,0,0,7.1Z"/><path class="cls-11" d="M266.12,64.8V294h0a1.25,1.25,0,0,0,.73,1,3.83,3.83,0,0,0,3.46,0,1.19,1.19,0,0,0,.71-1V64.8Z"/><path class="cls-2" d="M61.09,179.66a8.58,8.58,0,0,1,3.9,6.76c0,2.49-1.76,3.49-3.92,2.24a8.59,8.59,0,0,1-3.91-6.76C57.17,179.41,58.93,178.41,61.09,179.66Z"/><path class="cls-2" d="M274.93,64.82a.67.67,0,0,0,0-.2v-.57h0v-.19a.67.67,0,0,0,0-.2v-.08h0v-.09a.34.34,0,0,0-.05-.2c-.06-.07,0-.1,0-.16h0a1.18,1.18,0,0,0-.07-.2l-.06-.2v-.06l-.06-.13a1.07,1.07,0,0,0-.07-.19.84.84,0,0,0-.06-.14h0a.43.43,0,0,0-.09-.18l-.09-.21h0a.65.65,0,0,1-.09-.16l-.12-.2-.05-.11h0c0-.06-.08-.12-.11-.17s-.1-.17-.16-.25h0c-.07-.12-.16-.24-.24-.35h0a1.3,1.3,0,0,0-.18-.23l-.14-.18h0l-.14-.17a1.19,1.19,0,0,1-.15-.18h0a.57.57,0,0,1-.11-.11l-.16-.16h-.06a.6.6,0,0,1-.08-.08l-.17-.15-.08-.06h0l-.17-.13L272,59h0l-.17-.11-.16-.11h0l-.12-.06-.16-.09h-.11l-.15-.07h-1.61l-.22.07h0l-.3.14L58.3,179.39a1.64,1.64,0,0,1,.3-.14l.24-.08h.7l.32.06h0a1.33,1.33,0,0,1,.34.1h0l.37.15h0l.39.21a2.84,2.84,0,0,1,.39.25h0l.36.27h0a2.28,2.28,0,0,1,.33.29h0l.33.33h0c.12.12.23.25.34.38h0c.11.13.21.27.31.41h0l.27.39.17.25.13.22v.09a3.24,3.24,0,0,1,.19.37h0c.08.16.16.31.22.46h0a3.66,3.66,0,0,1,.18.46h0a1.8,1.8,0,0,0,.16.46h0a1.83,1.83,0,0,0,.12.46h0a4,4,0,0,0,.08.46h0a3.38,3.38,0,0,1,0,.45h0v.45a3.09,3.09,0,0,1,0,.43h0v.37h0a1.94,1.94,0,0,1-.07.33h0c0,.09-.07.19-.11.28h0l-.16.28h0A1.66,1.66,0,0,1,64,188l-.06.06a1,1,0,0,1-.14.15l-.07.05-.23.16h0l210.25-121a1.14,1.14,0,0,0,.23-.15h.06a.93.93,0,0,0,.14-.14l.07-.08a.9.9,0,0,0,.15-.19h0a2.26,2.26,0,0,0,.14-.26h0c0-.07.06-.12.08-.19v-.1h0v-.32h0v-.83h0Z"/><path class="cls-13" d="M274.93,64.82a.67.67,0,0,0,0-.2v-.57h0v-.19a.67.67,0,0,0,0-.2v-.08h0v-.09a.34.34,0,0,0-.05-.2c-.06-.07,0-.1,0-.16h0a1.18,1.18,0,0,0-.07-.2l-.06-.2v-.06l-.06-.13a1.07,1.07,0,0,0-.07-.19.84.84,0,0,0-.06-.14h0a.43.43,0,0,0-.09-.18l-.09-.21h0a.65.65,0,0,1-.09-.16l-.12-.2-.05-.11h0c0-.06-.08-.12-.11-.17s-.1-.17-.16-.25h0c-.07-.12-.16-.24-.24-.35h0a1.3,1.3,0,0,0-.18-.23l-.14-.18h0l-.14-.17a1.19,1.19,0,0,1-.15-.18h0a.57.57,0,0,1-.11-.11l-.16-.16h-.06a.6.6,0,0,1-.08-.08l-.17-.15-.08-.06h0l-.17-.13L272,59h0l-.17-.11-.16-.11h0l-.12-.06-.16-.09h-.11l-.15-.07h-1.61l-.22.07h0l-.3.14L58.3,179.39a1.64,1.64,0,0,1,.3-.14l.24-.08h.7l.32.06h0a1.33,1.33,0,0,1,.34.1h0l.37.15h0l.39.21a2.84,2.84,0,0,1,.39.25h0l.36.27h0a2.28,2.28,0,0,1,.33.29h0l.33.33h0c.12.12.23.25.34.38h0c.11.13.21.27.31.41h0l.27.39.17.25.13.22v.09a3.24,3.24,0,0,1,.19.37h0c.08.16.16.31.22.46h0a3.66,3.66,0,0,1,.18.46h0a1.8,1.8,0,0,0,.16.46h0a1.83,1.83,0,0,0,.12.46h0a4,4,0,0,0,.08.46h0a3.38,3.38,0,0,1,0,.45h0v.45a3.09,3.09,0,0,1,0,.43h0v.37h0a1.94,1.94,0,0,1-.07.33h0c0,.09-.07.19-.11.28h0l-.16.28h0A1.66,1.66,0,0,1,64,188l-.06.06a1,1,0,0,1-.14.15l-.07.05-.23.16h0l210.25-121a1.14,1.14,0,0,0,.23-.15h.06a.93.93,0,0,0,.14-.14l.07-.08a.9.9,0,0,0,.15-.19h0a2.26,2.26,0,0,0,.14-.26h0c0-.07.06-.12.08-.19v-.1h0v-.32h0v-.83h0Z"/><path class="cls-11" d="M63.29,420.2a13.52,13.52,0,0,1-12.23,0,4.35,4.35,0,0,1-2.55-3.56h0v5c0,1.28.86,2.57,2.55,3.54a13.45,13.45,0,0,0,12.23,0,4.3,4.3,0,0,0,2.52-3.54v-5A4.35,4.35,0,0,1,63.29,420.2Z"/><path class="cls-11" d="M51.06,420.2a13.52,13.52,0,0,0,12.23,0,3.75,3.75,0,0,0,0-7.1,13.54,13.54,0,0,0-12.24,0,4.27,4.27,0,0,0-2.51,3.54A4.39,4.39,0,0,0,51.06,420.2Z"/><path class="cls-12" d="M51.06,420.2a13.52,13.52,0,0,0,12.23,0,3.75,3.75,0,0,0,0-7.1,13.54,13.54,0,0,0-12.24,0,4.27,4.27,0,0,0-2.51,3.54A4.39,4.39,0,0,0,51.06,420.2Z"/><path class="cls-11" d="M54.71,186.88V416.09h0a1.24,1.24,0,0,0,.72,1,3.83,3.83,0,0,0,3.46,0,1.2,1.2,0,0,0,.72-1V186.88Z"/><path class="cls-11" d="M42.3,192.85a4.09,4.09,0,0,1,1.84,3.26c0,1.17-.83,1.65-1.86,1.09A4.05,4.05,0,0,1,40.44,194C40.44,192.74,41.27,192.26,42.3,192.85Z"/><path class="cls-11" d="M62.58,185.26v-.37h0v-.48h0v-.19h0v-.16h0v-.18h0v-.18h0a.11.11,0,0,1,0-.08l-.08-.12h0l-.12-.18h0a.61.61,0,0,1-.07-.1.32.32,0,0,1-.08-.09h0l-.08-.09-.06-.07h0v-.06l-.09-.07h0l-.09-.08h0l-.08-.07h-.08l-.09-.05h-2a.27.27,0,0,0-.14.07L41,193.42l.14-.07h.76l.18.07h0l.18.08.19.12h0l.17.13h0l.16.14h0l.16.17h0l.15.17h0l.15.2h0l.12.18.08.12.06.11h0l.09.17h0l.1.21h0a.25.25,0,0,0,.08.22h0a1.8,1.8,0,0,1,.08.21h0l.06.22h0a.81.81,0,0,1,0,.22h0v.67a.54.54,0,0,1,0,.18h0v.15h0a.69.69,0,0,1,0,.13h0a.13.13,0,0,1-.08.14h0l-.07.1h0l-.08.06h0l-.1.08h0L62,186.88l.11-.08h0l.07-.06h0l.06-.1h0l.07-.12h0v-.09h0v-1.12h0Z"/><path class="cls-12" d="M62.58,185.26v-.37h0v-.48h0v-.19h0v-.16h0v-.18h0v-.18h0a.11.11,0,0,1,0-.08l-.08-.12h0l-.12-.18h0a.61.61,0,0,1-.07-.1.32.32,0,0,1-.08-.09h0l-.08-.09-.06-.07h0v-.06l-.09-.07h0l-.09-.08h0l-.08-.07h-.08l-.09-.05h-2a.27.27,0,0,0-.14.07L41,193.42l.14-.07h.76l.18.07h0l.18.08.19.12h0l.17.13h0l.16.14h0l.16.17h0l.15.17h0l.15.2h0l.12.18.08.12.06.11h0l.09.17h0l.1.21h0a.25.25,0,0,0,.08.22h0a1.8,1.8,0,0,1,.08.21h0l.06.22h0a.81.81,0,0,1,0,.22h0v.67a.54.54,0,0,1,0,.18h0v.15h0a.69.69,0,0,1,0,.13h0a.13.13,0,0,1-.08.14h0l-.07.1h0l-.08.06h0l-.1.08h0L62,186.88l.11-.08h0l.07-.06h0l.06-.1h0l.07-.12h0v-.09h0v-1.12h0Z"/><polygon class="cls-2" points="136.39 296.06 136.4 302.06 71.77 339.38 71.76 333.39 136.39 296.06"/><polygon class="cls-2" points="106.4 302.25 106.42 308.25 71.73 328.27 71.72 322.29 106.4 302.25"/><polygon class="cls-2" points="189.44 254.31 189.46 260.31 142.15 287.62 142.13 281.64 189.44 254.31"/><polygon class="cls-2" points="248.38 231.36 248.39 237.36 174.81 279.9 174.78 273.9 248.38 231.36"/><polygon class="cls-2" points="248.35 220.26 248.36 226.26 197.83 255.48 197.82 249.48 248.35 220.26"/><polygon class="cls-2" points="153.77 297.16 153.79 303.14 106.49 330.45 106.46 324.47 153.77 297.16"/><polygon class="cls-2" points="134.14 286.24 134.16 292.24 113.87 303.95 113.85 297.96 134.14 286.24"/><polygon class="cls-2" points="182.06 280.83 182.07 286.82 161.78 298.53 161.76 292.54 182.06 280.83"/><polygon class="cls-2" points="165.95 279 165.97 284.99 145.67 296.71 145.66 290.72 165.95 279"/><polygon class="cls-2" points="98.09 329.31 98.1 335.3 71.8 350.49 71.79 344.5 98.09 329.31"/><polygon class="cls-6" points="104.53 194.22 104.56 206.16 81.08 219.71 81.05 207.78 104.53 194.22"/><g class="cls-14"><polygon class="cls-6" points="129.13 258.01 129.16 269.95 105.68 283.5 105.65 271.56 129.13 258.01"/></g><polygon class="cls-2" points="129.09 245.03 129.12 256.97 105.67 270.52 105.61 258.59 129.09 245.03"/><polygon class="cls-2" points="129.06 232.06 129.09 243.99 105.63 257.53 105.58 245.61 129.06 232.06"/><g class="cls-15"><polygon class="cls-6" points="129.02 219.07 129.06 231.02 105.59 244.56 105.54 232.63 129.02 219.07"/></g><g class="cls-15"><polygon class="cls-6" points="128.99 206.1 129.01 218.04 105.56 231.58 105.5 219.65 128.99 206.1"/></g><g class="cls-15"><polygon class="cls-6" points="128.94 193.12 128.98 205.06 105.53 218.6 105.47 206.67 128.94 193.12"/></g><polygon class="cls-6" points="128.91 180.14 128.94 192.08 105.48 205.62 105.43 193.7 128.91 180.14"/><polygon class="cls-6" points="153.29 166.06 153.32 178 129.87 191.54 129.81 179.62 153.29 166.06"/><polygon class="cls-6" points="177.67 151.99 177.71 163.93 154.26 177.46 154.2 165.54 177.67 151.99"/><polygon class="cls-6" points="202.06 137.91 202.09 149.85 178.64 163.38 178.58 151.46 202.06 137.91"/><g class="cls-14"><polygon class="cls-6" points="226.51 136.78 226.54 148.73 203.06 162.29 203 150.35 226.51 136.78"/></g><polygon class="cls-6" points="226.47 123.81 226.5 135.75 203.02 149.31 202.96 137.39 226.47 123.81"/><polygon class="cls-6" points="104.56 207.19 104.59 219.14 81.12 232.69 81.08 220.74 104.56 207.19"/><g class="cls-15"><polygon class="cls-6" points="153.4 205 153.44 216.94 129.98 230.48 129.93 218.56 153.4 205"/></g><g class="cls-15"><polygon class="cls-6" points="153.37 192.02 153.4 203.96 129.94 217.5 129.89 205.57 153.37 192.02"/></g><g class="cls-15"><polygon class="cls-6" points="153.32 179.04 153.36 190.98 129.91 204.52 129.85 192.59 153.32 179.04"/></g><g class="cls-15"><polygon class="cls-6" points="177.75 177.94 177.79 189.88 154.32 203.42 154.27 191.49 177.75 177.94"/></g><g class="cls-15"><polygon class="cls-6" points="177.72 164.96 177.75 176.9 154.29 190.45 154.24 178.51 177.72 164.96"/></g><g class="cls-14"><polygon class="cls-6" points="202.17 176.84 202.2 188.78 178.75 202.33 178.69 190.4 202.17 176.84"/></g><g class="cls-14"><polygon class="cls-6" points="202.13 163.86 202.17 175.8 178.71 189.34 178.66 177.42 202.13 163.86"/></g><g class="cls-14"><polygon class="cls-6" points="202.1 150.88 202.13 162.82 178.67 176.37 178.61 164.44 202.1 150.88"/></g><polygon class="cls-6" points="104.59 220.18 104.63 232.12 81.15 245.67 81.12 233.73 104.59 220.18"/><polygon class="cls-6" points="104.74 272.09 104.78 284.03 81.3 297.58 81.26 285.64 104.74 272.09"/><polygon class="cls-6" points="104.71 259.11 104.74 271.05 81.26 284.61 81.23 272.67 104.71 259.11"/><polygon class="cls-6" points="104.67 246.14 104.71 258.07 81.23 271.62 81.19 259.69 104.67 246.14"/><polygon class="cls-6" points="104.64 233.15 104.66 245.09 81.19 258.65 81.15 246.71 104.64 233.15"/><g class="cls-14"><polygon class="cls-6" points="177.82 203.9 177.85 215.84 154.4 229.38 154.34 217.45 177.82 203.9"/></g><g class="cls-15"><polygon class="cls-6" points="177.79 190.92 177.82 202.86 154.36 216.4 154.31 204.47 177.79 190.92"/></g><polygon class="cls-2" points="153.44 217.98 153.47 229.92 130.02 243.46 129.96 231.53 153.44 217.98"/><g class="cls-14"><polygon class="cls-6" points="153.48 230.95 153.51 242.89 130.06 256.44 129.99 244.51 153.48 230.95"/></g><path class="cls-2" d="M90.41,207.17c.23.14.39.45.39,1.17h0a3.17,3.17,0,0,1-1.35,2.77,1.22,1.22,0,0,1-.87.18c-.07,0-.13-.07-.13-.18a.57.57,0,0,1,.26-.45.22.22,0,0,1,.16,0,.75.75,0,0,0,.58-.12A1.82,1.82,0,0,0,90.2,209a2,2,0,0,1-.74.81c-.67.39-1.12.19-1.12-.51h0a2.4,2.4,0,0,1,1.17-1.94C89.93,207.07,90.19,207,90.41,207.17Zm-.21,1h0c0-.37-.25-.52-.66-.3a1.3,1.3,0,0,0-.61,1h0c0,.38.26.51.64.28a1.26,1.26,0,0,0,.65-1"/><path class="cls-2" d="M93.38,205.47c.23.13.38.44.39,1.16h0a3.18,3.18,0,0,1-1.36,2.76,1.19,1.19,0,0,1-.86.19.17.17,0,0,1-.13-.19.57.57,0,0,1,.27-.45h.14a.76.76,0,0,0,.59-.12,1.86,1.86,0,0,0,.76-1.58,1.93,1.93,0,0,1-.74.81c-.68.39-1.12.2-1.12-.5h0a2.38,2.38,0,0,1,1.17-1.93C92.89,205.35,93.15,205.34,93.38,205.47Zm-.21,1h0c0-.38-.26-.52-.66-.29a1.24,1.24,0,0,0-.63,1h0c0,.38.26.5.64.28a1.27,1.27,0,0,0,.65-1"/><path class="cls-2" d="M96.89,204.93c.45-.26.76,0,.76.48h0a1.7,1.7,0,0,1-.76,1.37c-.43.26-.74,0-.74-.49h0A1.7,1.7,0,0,1,96.89,204.93Zm.35.74h0c0-.29-.15-.44-.35-.32a.83.83,0,0,0-.34.71h0c0,.3.15.45.35.34a.88.88,0,0,0,.34-.72"/><path class="cls-2" d="M115.17,192.56c.16-.1.28-.05.28.12a.87.87,0,0,1-.16.44l-.75,1.31c.49-.21.94-.18.94.48a2.21,2.21,0,0,1-1.1,1.81,1.08,1.08,0,0,1-1.08.14s-.08-.08-.08-.17a.63.63,0,0,1,.26-.47.19.19,0,0,1,.18,0,.69.69,0,0,0,.73-.07,1.09,1.09,0,0,0,.54-.87h0c0-.35-.29-.38-.73-.13l-.11.07a.16.16,0,0,1-.21,0,.13.13,0,0,1,0-.12.7.7,0,0,1,.12-.34l.73-1.33-1.15.67c-.14.07-.24,0-.24-.14a.54.54,0,0,1,.24-.42Z"/><path class="cls-2" d="M116.37,194.76a.19.19,0,0,1,.32.17v0a.69.69,0,0,1-.32.55.2.2,0,0,1-.32-.18v0A.68.68,0,0,1,116.37,194.76Z"/><path class="cls-2" d="M119.61,192.29a.15.15,0,0,1,.24.13.52.52,0,0,1-.24.4l-.24.14v.53a.57.57,0,0,1-.27.46.16.16,0,0,1-.26-.15v-.53l-1.42.81a.16.16,0,0,1-.26-.14.73.73,0,0,1,.12-.41l1.47-2.88a.87.87,0,0,1,.35-.41c.14-.09.26,0,.26.15v2.08Zm-.77.45V191.3l-1,2,1-.6"/><path class="cls-2" d="M121,189.12c.16-.09.27,0,.27.16v3.07a.63.63,0,0,1-.27.48.17.17,0,0,1-.27-.16v-2.74l-.33.3-.09.08c-.14.08-.25,0-.25-.13a.53.53,0,0,1,.18-.39l.48-.45a1.39,1.39,0,0,1,.27-.21Z"/><path class="cls-2" d="M136.43,180.24a.17.17,0,0,1,.28.15v3.07a.6.6,0,0,1-.28.48.17.17,0,0,1-.27-.16V181l-.33.3-.09.08a.15.15,0,0,1-.24-.13.53.53,0,0,1,.18-.39l.47-.45a1.46,1.46,0,0,1,.28-.21Z"/><path class="cls-2" d="M137.76,182.41c.18-.1.32,0,.32.17v.06a.68.68,0,0,1-.32.54c-.18.1-.32,0-.32-.17v0A.68.68,0,0,1,137.76,182.41Z"/><path class="cls-2" d="M140.66,178.15c.23.14.38.45.39,1.17h0a3.16,3.16,0,0,1-1.36,2.76,1.14,1.14,0,0,1-.86.18c-.08,0-.12-.06-.13-.18a.53.53,0,0,1,.27-.44.22.22,0,0,1,.16,0,.73.73,0,0,0,.57-.12,1.86,1.86,0,0,0,.76-1.58,1.93,1.93,0,0,1-.74.81c-.67.39-1.12.2-1.12-.5h0a2.37,2.37,0,0,1,1.17-1.93C140.2,178,140.46,178,140.66,178.15Zm-.22,1h0c0-.38-.25-.53-.65-.3a1.28,1.28,0,0,0-.63,1.05h0c0,.38.26.5.65.27a1.24,1.24,0,0,0,.63-1"/><path class="cls-2" d="M143.65,176.44c.23.13.38.44.39,1.16h0a3.17,3.17,0,0,1-1.35,2.76,1.22,1.22,0,0,1-.87.19.18.18,0,0,1-.13-.19.59.59,0,0,1,.26-.45.22.22,0,0,1,.16,0,.71.71,0,0,0,.58-.11,1.88,1.88,0,0,0,.76-1.58,2,2,0,0,1-.75.81c-.66.39-1.11.2-1.12-.5h0a2.42,2.42,0,0,1,1.18-1.93C143.17,176.33,143.43,176.31,143.65,176.44Zm-.21,1h0c0-.38-.26-.53-.67-.29a1.26,1.26,0,0,0-.62,1h0c0,.38.25.51.65.29a1.3,1.3,0,0,0,.64-1"/><path class="cls-2" d="M147.17,175.9c.45-.25.74,0,.74.49h0a1.75,1.75,0,0,1-.74,1.37c-.45.25-.75,0-.75-.5h0A1.66,1.66,0,0,1,147.17,175.9Zm.34.75h0c0-.29-.15-.45-.35-.33a.88.88,0,0,0-.34.72h0c0,.3.15.45.36.33a.85.85,0,0,0,.33-.71"/><path class="cls-2" d="M147.43,174.11a.43.43,0,0,1,0,.16l-2.1,4.41a.42.42,0,0,1-.16.19.11.11,0,0,1-.18-.1.43.43,0,0,1,0-.16l2.07-4.45a.38.38,0,0,1,.14-.19C147.35,174,147.43,174,147.43,174.11Z"/><path class="cls-2" d="M146,175.65a1.74,1.74,0,0,1-.74,1.36c-.45.25-.75,0-.75-.5h0a1.63,1.63,0,0,1,.75-1.36C145.7,174.9,146,175.15,146,175.65Zm-1.09.63c0,.29.15.44.35.33a.87.87,0,0,0,.33-.72h0c0-.29-.14-.45-.34-.32a.86.86,0,0,0-.34.71h0"/><path class="cls-2" d="M161,166.07c.16-.09.27,0,.27.16v3.07a.59.59,0,0,1-.27.47.17.17,0,0,1-.27-.15v-2.75l-.33.31-.1.07a.15.15,0,0,1-.25-.13.54.54,0,0,1,.19-.37l.48-.46a2,2,0,0,1,.27-.22Z"/><path class="cls-2" d="M162.29,168.25c.19-.11.32,0,.32.17v.05a.65.65,0,0,1-.31.54c-.19.11-.33,0-.33-.17v-.05A.69.69,0,0,1,162.29,168.25Z"/><path class="cls-2" d="M165.08,163.75a.15.15,0,0,1,.25.13.55.55,0,0,1-.25.43l-1.19.69,0,.86a2.05,2.05,0,0,1,.5-.39c.62-.36,1.11-.27,1.11.5a2.3,2.3,0,0,1-1.16,1.91,1.17,1.17,0,0,1-1,.18c-.07,0-.11-.07-.11-.18a.59.59,0,0,1,.26-.45.15.15,0,0,1,.16,0,.83.83,0,0,0,.69-.09,1.22,1.22,0,0,0,.62-1c0-.39-.28-.46-.66-.24a4.51,4.51,0,0,0-.54.44.39.39,0,0,1-.26,0c-.09,0-.11-.11-.11-.23l.06-1.34a.54.54,0,0,1,.26-.43Z"/><path class="cls-2" d="M167.89,162.12c.14-.07.25,0,.25.14a.54.54,0,0,1-.24.42l-1.19.69-.06.87a2.38,2.38,0,0,1,.5-.4c.63-.35,1.11-.26,1.12.51a2.31,2.31,0,0,1-1.16,1.9,1.23,1.23,0,0,1-1,.19.17.17,0,0,1-.11-.18.57.57,0,0,1,.27-.46.15.15,0,0,1,.16,0,.78.78,0,0,0,.68-.1,1.16,1.16,0,0,0,.62-1c0-.38-.27-.46-.66-.23a3.18,3.18,0,0,0-.53.44.32.32,0,0,1-.27,0c-.08,0-.11-.1-.1-.22l.06-1.35a.53.53,0,0,1,.25-.43Z"/><path class="cls-2" d="M171.7,160.12a.43.43,0,0,1,0,.16l-2.07,4.45a.4.4,0,0,1-.16.18c-.1.06-.17,0-.17-.1a.43.43,0,0,1,0-.16l2.06-4.45a.4.4,0,0,1,.16-.18A.11.11,0,0,1,171.7,160.12Z"/><path class="cls-2" d="M171.41,161.91c.44-.25.74,0,.74.49h0a1.74,1.74,0,0,1-.74,1.36c-.45.26-.75,0-.75-.49h0A1.63,1.63,0,0,1,171.41,161.91Zm.33.75h0c0-.29-.14-.45-.34-.33a.88.88,0,0,0-.34.72h0c0,.3.15.45.35.32a.86.86,0,0,0,.33-.7"/><path class="cls-2" d="M170.23,161.66a1.63,1.63,0,0,1-.75,1.36c-.44.26-.74,0-.74-.49h0a1.66,1.66,0,0,1,.75-1.36C169.94,160.91,170.23,161.17,170.23,161.66Zm-1.12.64c0,.29.15.44.35.32a.85.85,0,0,0,.34-.71h0c0-.29-.15-.45-.35-.33a.88.88,0,0,0-.34.72h0"/><path class="cls-2" d="M185.17,152.1c.16-.09.27,0,.27.16v3.07a.59.59,0,0,1-.27.47c-.15.09-.27,0-.27-.16v-2.73l-.33.3-.1.08a.15.15,0,0,1-.24-.14.47.47,0,0,1,.19-.38l.47-.46a1.05,1.05,0,0,1,.27-.2Z"/><path class="cls-2" d="M186.49,154.28c.19-.11.32,0,.32.17h0a.63.63,0,0,1-.31.54.2.2,0,0,1-.33-.17v0A.7.7,0,0,1,186.49,154.28Z"/><path class="cls-2" d="M188.64,150.08c.86-.47,1.38,0,1.38,1.07h0a3.2,3.2,0,0,1-1.37,2.67c-.86.48-1.38,0-1.38-1.08A3.2,3.2,0,0,1,188.64,150.08Zm.81,1.42h0c0-.71-.33-1.12-.81-.86a2.06,2.06,0,0,0-.8,1.72h0c0,.72.32,1.12.81.87a2.09,2.09,0,0,0,.8-1.73"/><path class="cls-2" d="M192.46,147.93a.16.16,0,0,1,.22,0,.13.13,0,0,1,0,.12.52.52,0,0,1-.25.42l-1.19.69-.05.86a2.46,2.46,0,0,1,.51-.39c.62-.36,1.1-.26,1.1.5a2.33,2.33,0,0,1-1.15,1.91,1.22,1.22,0,0,1-1,.19.18.18,0,0,1-.12-.18.66.66,0,0,1,.26-.47.25.25,0,0,1,.17,0,.81.81,0,0,0,.69-.09,1.19,1.19,0,0,0,.61-1c0-.38-.27-.46-.66-.24a4.51,4.51,0,0,0-.54.44.32.32,0,0,1-.27,0c-.07,0-.1-.1-.1-.21l.06-1.36a.6.6,0,0,1,.26-.43Z"/><path class="cls-2" d="M196,147.73c.45-.25.74,0,.74.49h0a1.62,1.62,0,0,1-.74,1.36c-.44.26-.74,0-.74-.49h0A1.62,1.62,0,0,1,196,147.73Zm.34.75h0c0-.3-.14-.45-.34-.33a.87.87,0,0,0-.35.71h0c0,.31.15.45.36.33a.85.85,0,0,0,.33-.71"/><path class="cls-2" d="M194.8,147.48a1.7,1.7,0,0,1-.74,1.36c-.45.25-.75,0-.75-.49h0a1.66,1.66,0,0,1,.75-1.36c.44-.26.74,0,.74.49Zm-1.09.62c0,.3.15.44.35.33a.83.83,0,0,0,.34-.71h0c0-.3-.15-.45-.35-.33a.86.86,0,0,0-.34.71h0"/><path class="cls-2" d="M196.23,145.91a.49.49,0,0,1,0,.17l-2.11,4.46a.39.39,0,0,1-.17.19c-.09.06-.17,0-.17-.11a.37.37,0,0,1,0-.15l2.06-4.45a.38.38,0,0,1,.16-.19C196.15,145.78,196.23,145.82,196.23,145.91Z"/><path class="cls-2" d="M209.56,138c.86-.47,1.38,0,1.38,1.07h0a3.21,3.21,0,0,1-1.37,2.67c-.87.48-1.38,0-1.38-1.07A3.2,3.2,0,0,1,209.56,138Zm.81,1.42h0c0-.71-.33-1.11-.81-.86a2.06,2.06,0,0,0-.8,1.72h0c0,.72.31,1.13.81.87a2.15,2.15,0,0,0,.8-1.73"/><path class="cls-2" d="M211.72,139.72a.19.19,0,0,1,.32.17v.05a.65.65,0,0,1-.32.53.19.19,0,0,1-.32-.17v-.05A.65.65,0,0,1,211.72,139.72Z"/><path class="cls-2" d="M214,136.86c.61-.35,1.1-.22,1.11.5a2.4,2.4,0,0,1-1.17,1.92c-.39.23-.68.25-.87.13s-.38-.43-.39-1.16a3.18,3.18,0,0,1,1.32-2.78,1.21,1.21,0,0,1,.79-.19c.09,0,.14.06.14.19a.56.56,0,0,1-.27.45.17.17,0,0,1-.14,0,.78.78,0,0,0-.54.11,1.9,1.9,0,0,0-.75,1.6A2,2,0,0,1,214,136.86Zm.55.86h0c0-.37-.25-.49-.65-.26a1.24,1.24,0,0,0-.64,1h0c0,.37.26.5.66.27a1.24,1.24,0,0,0,.63-1"/><path class="cls-2" d="M217.45,133.51c.15-.09.27,0,.27.12a.86.86,0,0,1-.15.44l-.75,1.32c.48-.21.93-.19.93.48a2.18,2.18,0,0,1-1.1,1.8,1.08,1.08,0,0,1-1.07.15.17.17,0,0,1-.09-.18.57.57,0,0,1,.27-.46.15.15,0,0,1,.18,0,.66.66,0,0,0,.71-.07,1.08,1.08,0,0,0,.56-.86h0c0-.35-.29-.39-.74-.13l-.11.06c-.13.08-.24,0-.24-.14a.63.63,0,0,1,.12-.32l.73-1.34-1.14.66a.16.16,0,0,1-.25-.14.58.58,0,0,1,.25-.41Z"/><path class="cls-2" d="M219.74,133.08a1.74,1.74,0,0,1-.75,1.36c-.44.26-.74,0-.74-.49h0a1.72,1.72,0,0,1,.74-1.36C219.44,132.33,219.73,132.59,219.74,133.08Zm-1.09.63c0,.29.14.44.35.32a.85.85,0,0,0,.33-.71h0c0-.29-.14-.45-.34-.33a.88.88,0,0,0-.34.72h0"/><path class="cls-2" d="M221.17,131.53a.49.49,0,0,1,0,.17l-2.06,4.45a.52.52,0,0,1-.15.18c-.11.06-.19,0-.19-.1a.43.43,0,0,1,0-.16l2.07-4.45a.35.35,0,0,1,.16-.18A.1.1,0,0,1,221.17,131.53Z"/><path class="cls-2" d="M220.91,133.33c.44-.25.74,0,.74.49h0a1.66,1.66,0,0,1-.75,1.36c-.44.26-.74,0-.74-.49h0A1.66,1.66,0,0,1,220.91,133.33Zm.34.75h0c0-.3-.15-.45-.35-.33a.86.86,0,0,0-.34.72h0c0,.3.15.44.35.32a.85.85,0,0,0,.34-.7"/><path class="cls-2" d="M88,221.2a.17.17,0,0,1,.27.15v3.08a.59.59,0,0,1-.27.47.17.17,0,0,1-.28-.15V222l-.32.31-.1.06a.15.15,0,0,1-.25-.12.5.5,0,0,1,.19-.38l.47-.45a1.93,1.93,0,0,1,.28-.22Z"/><path class="cls-2" d="M90.35,219.82c.86-.47,1.37.05,1.38,1.08a3.2,3.2,0,0,1-1.37,2.68c-.86.48-1.38,0-1.38-1.07h0A3.19,3.19,0,0,1,90.35,219.82Zm.8,1.43h0c0-.7-.32-1.11-.8-.86a2.06,2.06,0,0,0-.8,1.73h0c0,.71.32,1.12.81.86a2.07,2.07,0,0,0,.79-1.73"/><path class="cls-2" d="M93.62,217.93c.86-.47,1.38,0,1.39,1.08a3.24,3.24,0,0,1-1.38,2.68c-.86.49-1.37,0-1.38-1.07h0A3.22,3.22,0,0,1,93.62,217.93Zm.81,1.43h0c0-.71-.33-1.11-.81-.86a2,2,0,0,0-.79,1.73h0c0,.71.31,1.12.81.86a2.1,2.1,0,0,0,.79-1.73"/><path class="cls-2" d="M98.41,215.42a.38.38,0,0,1,0,.15l-2.11,4.49a.4.4,0,0,1-.16.18.11.11,0,0,1-.18-.1.38.38,0,0,1,0-.15L98,215.54a.34.34,0,0,1,.15-.18C98.32,215.26,98.41,215.3,98.41,215.42Z"/><path class="cls-2" d="M98.14,217.21c.44-.26.74,0,.74.49h0a1.67,1.67,0,0,1-.74,1.36c-.45.26-.75,0-.75-.49h0A1.66,1.66,0,0,1,98.14,217.21Zm.34.74h0c0-.28-.15-.45-.35-.33a.88.88,0,0,0-.34.72h0c0,.3.15.45.36.34a.9.9,0,0,0,.33-.73"/><path class="cls-2" d="M97,217a1.61,1.61,0,0,1-.74,1.35c-.45.26-.74,0-.75-.48h0a1.66,1.66,0,0,1,.75-1.36c.45-.26.74,0,.74.48Zm-1.08.63c0,.29.14.44.34.33a.86.86,0,0,0,.35-.72h0c0-.29-.15-.45-.36-.34a.87.87,0,0,0-.33.72h0"/><path class="cls-2" d="M88.07,234.18c.15-.1.27,0,.27.15v3.07a.61.61,0,0,1-.27.48.18.18,0,0,1-.28-.16V235l-.32.3-.1.08a.15.15,0,0,1-.24-.13.51.51,0,0,1,.18-.38l.47-.46a2.92,2.92,0,0,1,.28-.21Z"/><path class="cls-2" d="M90.39,232.8c.87-.48,1.37,0,1.37,1.08a3.22,3.22,0,0,1-1.37,2.69c-.86.47-1.38,0-1.38-1.08A3.25,3.25,0,0,1,90.39,232.8Zm.81,1.43h0c0-.72-.33-1.12-.81-.86a2.07,2.07,0,0,0-.81,1.72h0c0,.72.33,1.12.82.86a2.09,2.09,0,0,0,.8-1.72"/><path class="cls-2" d="M93.66,230.91c.86-.47,1.37,0,1.38,1.08a3.24,3.24,0,0,1-1.38,2.69c-.86.47-1.37,0-1.38-1.08A3.25,3.25,0,0,1,93.66,230.91Zm.8,1.43h0c0-.71-.32-1.12-.81-.86a2,2,0,0,0-.79,1.72h0c0,.72.32,1.12.81.87a2.08,2.08,0,0,0,.79-1.73"/><path class="cls-2" d="M98.41,228.39a.49.49,0,0,1,0,.17L96.33,233a.35.35,0,0,1-.16.18c-.09.06-.17,0-.17-.1a.43.43,0,0,1,0-.16l2.06-4.45a.44.44,0,0,1,.15-.18C98.35,228.24,98.41,228.28,98.41,228.39Z"/><path class="cls-2" d="M98.17,230.19c.45-.25.74,0,.75.5h0a1.74,1.74,0,0,1-.75,1.36c-.44.25-.74,0-.74-.5h0A1.65,1.65,0,0,1,98.17,230.19Zm.35.75h0c0-.3-.15-.45-.35-.33a.81.81,0,0,0-.34.7h0c0,.31.14.45.35.33a.88.88,0,0,0,.34-.7"/><path class="cls-2" d="M97,229.94a1.7,1.7,0,0,1-.74,1.36c-.45.26-.74,0-.74-.49h0a1.64,1.64,0,0,1,.74-1.37C96.71,229.19,97,229.44,97,229.94Zm-1.09.62c0,.3.15.45.36.33a.85.85,0,0,0,.33-.71h0c0-.3-.14-.45-.35-.33a.87.87,0,0,0-.34.71h0"/><path class="cls-2" d="M90.65,246c.23.14.38.45.38,1.18A3.14,3.14,0,0,1,89.69,250a1.17,1.17,0,0,1-.87.19.16.16,0,0,1-.12-.19.53.53,0,0,1,.25-.44.43.43,0,0,1,.16,0,.74.74,0,0,0,.58-.1,1.89,1.89,0,0,0,.76-1.59,2,2,0,0,1-.74.82c-.68.38-1.13.19-1.13-.51a2.44,2.44,0,0,1,1.21-2A.93.93,0,0,1,90.65,246Zm-.21,1h0c0-.38-.26-.52-.67-.29a1.25,1.25,0,0,0-.62,1h0c0,.37.25.5.65.27a1.27,1.27,0,0,0,.64-1"/><path class="cls-2" d="M93.54,244.05c.16-.1.25,0,.25.13a1,1,0,0,1-.07.35l-1.3,3.61a.66.66,0,0,1-.27.38c-.15.08-.28.06-.28-.13a.41.41,0,0,1,0-.22l1.22-3.33-1.37.79a.15.15,0,0,1-.24-.14.54.54,0,0,1,.24-.42Z"/><path class="cls-2" d="M97.14,242.14v.17L95,246.79a.3.3,0,0,1-.15.18c-.1.06-.17,0-.17-.09a.49.49,0,0,1,0-.17l2.06-4.44a.45.45,0,0,1,.15-.19C97.05,242,97.14,242,97.14,242.14Z"/><path class="cls-2" d="M96.87,244c.44-.26.74,0,.74.49h0a1.69,1.69,0,0,1-.74,1.36c-.45.26-.74,0-.74-.49h0A1.62,1.62,0,0,1,96.87,244Zm.34.74h0c0-.3-.14-.45-.35-.34a.88.88,0,0,0-.34.73h0c0,.29.15.44.35.32a.86.86,0,0,0,.34-.71"/><path class="cls-2" d="M95.7,243.69a1.67,1.67,0,0,1-.74,1.38c-.44.26-.74,0-.74-.49h0a1.69,1.69,0,0,1,.75-1.37c.45-.26.74,0,.74.49Zm-1.09.63c0,.3.15.45.34.32a.83.83,0,0,0,.35-.71h0c0-.29-.15-.45-.35-.33a.88.88,0,0,0-.34.72h0"/><path class="cls-2" d="M88.12,260.13c.15-.09.27,0,.27.16v3.07a.61.61,0,0,1-.27.48.18.18,0,0,1-.28-.16v-2.74l-.33.3-.09.08a.16.16,0,0,1-.25-.14.56.56,0,0,1,.19-.38l.47-.45a1.46,1.46,0,0,1,.28-.21Z"/><path class="cls-2" d="M90.46,258.76c.87-.48,1.37,0,1.38,1.08a3.2,3.2,0,0,1-1.38,2.68c-.86.48-1.37,0-1.38-1.07A3.25,3.25,0,0,1,90.46,258.76Zm.8,1.43h0c0-.72-.31-1.12-.81-.86a2.11,2.11,0,0,0-.79,1.72h0c0,.72.32,1.12.81.86a2,2,0,0,0,.79-1.72"/><path class="cls-2" d="M93.73,256.87c.86-.47,1.38,0,1.38,1.08a3.23,3.23,0,0,1-1.37,2.69c-.86.47-1.38-.05-1.38-1.08A3.23,3.23,0,0,1,93.73,256.87Zm.81,1.43h0c0-.71-.33-1.12-.81-.86a2,2,0,0,0-.79,1.72h0c0,.72.31,1.12.8.87a2.09,2.09,0,0,0,.8-1.73"/><path class="cls-2" d="M98.51,254.35a.43.43,0,0,1,0,.16L96.44,259a.4.4,0,0,1-.16.18c-.09.06-.17,0-.17-.11a.38.38,0,0,1,0-.15l2.06-4.45a.35.35,0,0,1,.16-.18A.11.11,0,0,1,98.51,254.35Z"/><path class="cls-2" d="M98.25,256.15c.44-.25.74,0,.74.49h0a1.71,1.71,0,0,1-.74,1.35c-.45.26-.74,0-.75-.49h0A1.64,1.64,0,0,1,98.25,256.15Zm.33.75h0c0-.3-.13-.45-.34-.33a.87.87,0,0,0-.34.71h0c0,.3.15.45.35.33a.85.85,0,0,0,.33-.71"/><path class="cls-2" d="M97.08,255.9a1.66,1.66,0,0,1-.75,1.36c-.44.25-.75,0-.75-.49h0a1.66,1.66,0,0,1,.75-1.36c.45-.26.75,0,.75.49Zm-1.09.63c0,.29.15.44.34.32a.84.84,0,0,0,.35-.71h0c0-.29-.16-.44-.35-.32a.86.86,0,0,0-.34.71h0"/><path class="cls-2" d="M88.15,273.11a.17.17,0,0,1,.28.16v3.07a.58.58,0,0,1-.28.47.17.17,0,0,1-.27-.15v-2.74l-.32.3-.11.07c-.13.07-.24,0-.24-.12a.57.57,0,0,1,.18-.39l.48-.45a2,2,0,0,1,.27-.22Z"/><path class="cls-2" d="M90.5,271.74c.86-.48,1.38,0,1.38,1.07h0a3.25,3.25,0,0,1-1.37,2.68c-.87.48-1.38-.05-1.38-1.08A3.2,3.2,0,0,1,90.5,271.74Zm.8,1.43h0c0-.72-.32-1.13-.8-.87a2.09,2.09,0,0,0-.8,1.73h0c0,.71.31,1.11.81.86a2,2,0,0,0,.79-1.72"/><path class="cls-2" d="M93.77,269.85c.87-.48,1.37,0,1.38,1.07h0a3.21,3.21,0,0,1-1.38,2.68c-.86.48-1.37-.05-1.38-1.08A3.23,3.23,0,0,1,93.77,269.85Zm.81,1.43h0c0-.72-.33-1.12-.81-.86a2.06,2.06,0,0,0-.8,1.72h0c0,.71.32,1.11.81.86a2.09,2.09,0,0,0,.8-1.72"/><path class="cls-2" d="M98.28,269.13c.45-.26.74,0,.74.48h0a1.66,1.66,0,0,1-.74,1.37c-.45.25-.74,0-.74-.49h0A1.67,1.67,0,0,1,98.28,269.13Zm.35.74h0c0-.28-.15-.44-.36-.33a.87.87,0,0,0-.33.72h0c0,.3.14.45.35.34a.88.88,0,0,0,.34-.72"/><path class="cls-2" d="M98.55,267.33a.43.43,0,0,1,0,.16l-2.06,4.45a.4.4,0,0,1-.16.18.11.11,0,0,1-.18-.1.43.43,0,0,1,0-.16l2.06-4.45a.43.43,0,0,1,.15-.18C98.46,267.17,98.55,267.22,98.55,267.33Z"/><path class="cls-2" d="M97.11,268.87a1.65,1.65,0,0,1-.74,1.36c-.45.26-.74,0-.75-.49h0a1.66,1.66,0,0,1,.75-1.36C96.82,268.12,97.11,268.38,97.11,268.87ZM96,269.5c0,.29.15.45.35.33a.88.88,0,0,0,.34-.72h0c0-.29-.14-.44-.35-.32a.86.86,0,0,0-.34.71h0"/><path class="cls-2" d="M88.19,286.09c.15-.09.27,0,.27.16v3.06a.63.63,0,0,1-.27.49.18.18,0,0,1-.28-.17v-2.74l-.32.3-.1.08a.15.15,0,0,1-.24-.13.53.53,0,0,1,.18-.38l.48-.45a1.39,1.39,0,0,1,.27-.21Z"/><path class="cls-2" d="M90.54,284.73c.82-.49,1.37,0,1.37,1.08a3.21,3.21,0,0,1-1.37,2.68c-.86.48-1.38,0-1.38-1.07h0A3.2,3.2,0,0,1,90.54,284.73Zm.8,1.43h0c0-.72-.33-1.11-.81-.86a2.06,2.06,0,0,0-.8,1.72h0c0,.72.33,1.12.82.86a2.08,2.08,0,0,0,.79-1.72"/><path class="cls-2" d="M93.81,282.83c.86-.48,1.37,0,1.38,1.07a3.25,3.25,0,0,1-1.38,2.69c-.86.47-1.37,0-1.37-1.08h0A3.19,3.19,0,0,1,93.81,282.83Zm.8,1.42h0c0-.71-.32-1.11-.81-.86a2.07,2.07,0,0,0-.79,1.73h0c0,.72.32,1.13.81.86a2.1,2.1,0,0,0,.79-1.73"/><path class="cls-2" d="M97.14,281.86a1.62,1.62,0,0,1-.74,1.35c-.44.26-.74,0-.74-.49h0a1.67,1.67,0,0,1,.74-1.36c.45-.26.74,0,.74.49Zm-1.08.62c0,.29.15.45.35.33a.89.89,0,0,0,.34-.72h0c0-.29-.15-.45-.36-.33a.87.87,0,0,0-.33.72h0"/><path class="cls-2" d="M98.58,280.3a.25.25,0,0,1,0,.17l-2.06,4.45a.45.45,0,0,1-.15.19.11.11,0,0,1-.18-.11.43.43,0,0,1,0-.16l2.06-4.45a.44.44,0,0,1,.15-.18C98.51,280.15,98.58,280.19,98.58,280.3Z"/><path class="cls-2" d="M98.32,282.14c.45-.26.74,0,.75.49h0a1.71,1.71,0,0,1-.75,1.36c-.44.25-.74,0-.74-.49h0A1.62,1.62,0,0,1,98.32,282.14Zm.34.74h0c0-.29-.14-.45-.34-.33a.87.87,0,0,0-.34.71h0c0,.3.14.44.35.33a.87.87,0,0,0,.33-.72"/><polygon class="cls-6" points="124 201.04 124.01 203.51 110.79 211.14 110.78 208.66 124 201.04"/><polygon class="cls-2" points="148.38 186.96 148.39 189.43 135.18 197.06 135.17 194.59 148.38 186.96"/><polygon class="cls-2" points="172.78 172.88 172.78 175.35 159.57 182.98 159.56 180.51 172.78 172.88"/><polygon class="cls-2" points="197.16 158.81 197.16 161.27 183.95 168.9 183.94 166.44 197.16 158.81"/><polygon class="cls-2" points="221.53 144.72 221.54 147.19 208.33 154.82 208.32 152.36 221.53 144.72"/><polygon class="cls-6" points="124.04 214.02 124.05 216.49 110.83 224.12 110.83 221.65 124.04 214.02"/><polygon class="cls-2" points="148.42 199.94 148.43 202.41 135.22 210.04 135.21 207.57 148.42 199.94"/><polygon class="cls-2" points="172.81 185.86 172.81 188.33 159.6 195.96 159.59 193.49 172.81 185.86"/><polygon class="cls-2" points="197.19 171.78 197.2 174.25 183.99 181.89 183.98 179.41 197.19 171.78"/><polygon class="cls-6" points="124.08 227 124.08 229.47 110.87 237.09 110.86 234.63 124.08 227"/><polygon class="cls-2" points="148.46 212.92 148.47 215.39 135.25 223.02 135.25 220.55 148.46 212.92"/><polygon class="cls-2" points="172.84 198.84 172.85 201.31 159.64 208.94 159.63 206.47 172.84 198.84"/><polygon class="cls-2" points="197.23 184.76 197.24 187.23 184.02 194.86 184.01 192.4 197.23 184.76"/><polygon class="cls-6" points="124.11 239.98 124.12 242.45 110.91 250.07 110.9 247.61 124.11 239.98"/><polygon class="cls-6" points="148.5 225.9 148.51 228.37 135.29 235.99 135.28 233.53 148.5 225.9"/><polygon class="cls-2" points="172.88 211.82 172.89 214.29 159.67 221.92 159.67 219.45 172.88 211.82"/><polygon class="cls-6" points="124.15 252.96 124.16 255.42 110.94 263.05 110.93 260.59 124.15 252.96"/><polygon class="cls-2" points="148.53 238.88 148.54 241.34 135.32 248.97 135.32 246.51 148.53 238.88"/><polygon class="cls-2" points="124.18 265.93 124.19 268.4 110.98 276.03 110.97 273.56 124.18 265.93"/><path class="cls-2" d="M97.16,203.13a.43.43,0,0,1,0,.16l-2.06,4.45a.35.35,0,0,1-.16.18c-.1.06-.17,0-.17-.09a.22.22,0,0,1,0-.16l2.06-4.45A.34.34,0,0,1,97,203C97.08,203,97.16,203,97.16,203.13Z"/><path class="cls-2" d="M95.73,204.67A1.74,1.74,0,0,1,95,206c-.44.25-.74,0-.75-.5h0a1.74,1.74,0,0,1,.75-1.36C95.43,203.92,95.72,204.18,95.73,204.67Zm-1.09.63c0,.3.14.44.35.33a.88.88,0,0,0,.34-.72h0c0-.29-.15-.44-.36-.32a.85.85,0,0,0-.33.71h0"/><g id="freepik--character-3--inject-69"><path class="cls-2" d="M416.81,277.61c6.21-5,11.35,4.34,15.09,14.7,2.28,6.28,4.62,12.42,6.11,16.3a7.82,7.82,0,0,1-1.09,7.52l-11.05,14.68L421,320.12l6.11-9.27-6.22-11.39Z"/><path class="cls-9" d="M425.44,307.83l-4.57-8.37-2.18-11.52,7.12,4.22A20.1,20.1,0,0,1,425.44,307.83Z"/><path class="cls-9" d="M428.81,326.89l-2.9,3.86L421,320.12l3.4-5.16a37.28,37.28,0,0,0,2.65,6.52A22,22,0,0,1,428.81,326.89Z"/><path class="cls-16" d="M400.82,465.75c-.26-.93-.47-1.86-.66-2.81a14.65,14.65,0,0,1-4.75,4.84A21.22,21.22,0,0,1,390,470a38.05,38.05,0,0,1-10.23,1.43,4.49,4.49,0,0,1-3.26-.9,2.31,2.31,0,0,1,.05-3.37l-1.15.28a11.51,11.51,0,0,0-3.9,1.26,3.36,3.36,0,0,0-1.66,3.48,4.32,4.32,0,0,0,2.67,2.45,19.64,19.64,0,0,0,14,.74c2.84-.92,5.57-2.51,8.53-2.42,1.7,0,3.56.61,5-.31a3.84,3.84,0,0,0,1.51-3.26A14.25,14.25,0,0,0,400.82,465.75Z"/><path class="cls-16" d="M423.66,447.34a6.18,6.18,0,0,1-1.65,2,4.88,4.88,0,0,1-4.17.88,8.72,8.72,0,0,1-3.55-2.43l-3.71-3.59c-1-.94-2-2.07-1.93-3.42a3.25,3.25,0,0,1,2.85-2.68,6.73,6.73,0,0,1,2.49.14l-.37-.27a16.77,16.77,0,0,0-3-1.7,5.4,5.4,0,0,0-3.68-.48,4,4,0,0,0-2.53,3.65,7,7,0,0,0,1.59,4.34,30.81,30.81,0,0,0,3.26,3.4,41,41,0,0,1,4.24,4.79,25.08,25.08,0,0,0,3,3.66,6.15,6.15,0,0,0,4.24,1.81,3.63,3.63,0,0,0,3.18-2,5.9,5.9,0,0,0,.36-2.53C424.13,451.05,423.92,449.19,423.66,447.34Z"/><path class="cls-17" d="M376,468.11a2.33,2.33,0,0,1,.63-.95,44,44,0,0,0,14.12-6.23c-.66-15.48-6.28-55.68-6.28-55.68s-1.95-34.34.66-67.3l42.5-4.25c1.09,3.88,3.84,18.47-4.43,56.79,6.91,19.26,2.06,30,0,53.7h-.08a2.71,2.71,0,0,0,.12.55c.16.83.26,1.68.38,2.52a6.16,6.16,0,0,1-1.65,2,4.91,4.91,0,0,1-4.17.88,8.78,8.78,0,0,1-3.54-2.44l-3.67-3.5c-1-.94-2-2.07-1.93-3.42a3.25,3.25,0,0,1,2.85-2.68,6.73,6.73,0,0,1,2.49.14c.4.3.77.61,1.15.88L408,396l-1.67-31-4.2,38.63c5.87,16.76-2.75,26.07-2.75,52.85a37.69,37.69,0,0,0,.78,6.52,14.53,14.53,0,0,1-4.75,4.83A20.53,20.53,0,0,1,390,470a37.67,37.67,0,0,1-10.23,1.44,4.54,4.54,0,0,1-3.26-.9A2.41,2.41,0,0,1,376,468.11Z"/><path class="cls-9" d="M383.87,384.39c-.18-12.74,0-29.74,1.29-46.4l42.51-4.24c1,3.64,3.51,16.75-3.08,50.2a32.25,32.25,0,0,1-16.9,6.22l-1.36-25.26-2.73,25.6A29.31,29.31,0,0,1,383.87,384.39Z"/><path class="cls-2" d="M385.14,336.67l42.54-2.91c4.14,11.71,3.26,25.7,0,45.83-5.14,6.37-24.18,11.48-35.47,5.24l-1.35-13.91-1.53,14.27c-3.42-1.27-6.52-2.37-7.18-7.4A307.39,307.39,0,0,1,385.14,336.67Z"/><path class="cls-18" d="M385.14,336.67l42.54-2.91c4.14,11.71,3.26,25.7,0,45.83-5.14,6.37-24.18,11.48-35.47,5.24l-1.35-13.91-1.53,14.27c-3.42-1.27-6.52-2.37-7.18-7.4A307.39,307.39,0,0,1,385.14,336.67Z"/><path class="cls-19" d="M391.93,255.91l-3,5.55,2.64,1.8C391.75,260.88,391.77,258.28,391.93,255.91Z"/><path class="cls-17" d="M357.38,326.89A32.07,32.07,0,0,1,346.8,330,19.68,19.68,0,0,1,336,328.12a14.47,14.47,0,0,1-7.14-8.26h0a3.39,3.39,0,0,1,4.21-.63,14,14,0,0,0,10.61,1.27,23.43,23.43,0,0,1-3-3.74c-.43-.67-.83-1.53-.39-2.18a1.51,1.51,0,0,1,1.69-.45,5.26,5.26,0,0,1,1.58,1,21.17,21.17,0,0,0,9.25,4.34C354.25,321.83,356,324.59,357.38,326.89Z"/><path class="cls-2" d="M396.25,280.72C401.8,279,418,275.49,422,279.17c3.56,3.26,5.89,14.34,1.09,28.6a16.86,16.86,0,0,0,.56,12.45,74.08,74.08,0,0,1,4.9,14c-13,13.21-35.85,11.16-44.45,5.54a211.16,211.16,0,0,1,2.71-31.56Z"/><path class="cls-17" d="M394.31,247.83a21.4,21.4,0,0,0-3.36,9.59,63.9,63.9,0,0,0-.14,10.26,6.68,6.68,0,0,0,.93,3.8,5.27,5.27,0,0,0,4.22,1.65h4.69l.34,7.08c5.58,3.1,11.87.94,13.5-1.27l-.28-6.93c-8.69,1.63-13.39-1.35-14.2-6.73a6,6,0,0,0,5-1.31,5.72,5.72,0,0,0,1.64-4.76,3.81,3.81,0,0,0-.89-2.1,3.43,3.43,0,0,0-3.56-.75,5.41,5.41,0,0,0-2.81,2.5,13.61,13.61,0,0,0-1.3,3.6,3.26,3.26,0,0,1-1.09-3.53c.24-.64.7-1.25.6-1.92s-.88-1.24-1.25-1.91a2.58,2.58,0,0,1-.13-1.91,7.43,7.43,0,0,1,.84-1.78A17.85,17.85,0,0,0,394.31,247.83Z"/><path class="cls-9" d="M385.07,321.63c.78-7.85,1.75-13.4,1.75-13.4L394.1,287l2.74,3.78C395.17,300.82,391.24,313.25,385.07,321.63Z"/><path class="cls-2" d="M396.25,280.72c-10.22-4.45-11.4,5.28-17,15.65-3.43,6.66-7.68,13-7.68,13a77.3,77.3,0,0,1-18.93,8.69c-2.22,5.87,2.95,11.64,2.95,11.64l21.95-9.52a19.85,19.85,0,0,0,9-7.8C394.4,299.59,400.19,290.52,396.25,280.72Z"/><path class="cls-20" d="M395,251.24c-2.3-2.55-4.7-5.32-5.2-8.69A8.77,8.77,0,0,1,405.56,236c5.53-2.47,13.45-.89,17.25,3.83s4.13,11.72,3.47,17.93-2,12.59-.38,18.65c1.42,5.44,5.1,10.37,5,16a14.13,14.13,0,0,1-4.94,10,19.79,19.79,0,0,1-10.39,4.49,19.34,19.34,0,0,1-10-1.08,13.57,13.57,0,0,1-7.31-6.77c-1.75-3.9-1.23-8.43-.27-12.59s2.33-8.33,2.18-12.6C399.81,266.15,394.54,259,395,251.24Z"/></g><path class="cls-11" d="M314,148.56h0a17,17,0,0,1,14.25,18.37l-2.11,21.9L340,191.6l-4.44,10.74-24.19-2.45Z"/><path class="cls-21" d="M314,148.56h0a17,17,0,0,1,14.25,18.37l-2.11,21.9L340,191.6l-4.44,10.74-24.19-2.45Z"/><path class="cls-18" d="M326.12,188.83a3.78,3.78,0,0,0-2.9,1.89,116,116,0,0,0,1.2-17.27c-.07-4.23-.46-8.64-2.7-12.22a17.51,17.51,0,0,0-6.1-5.66c-.63-.38-1.28-.73-1.94-1.09l-2.29,45.38,24.19,2.44L340,191.57Z"/><path class="cls-11" d="M334,345.86a9.81,9.81,0,0,1-7.35,2.7,22.36,22.36,0,0,1-7.75-2c-2.48-1-5.6-3.87-8.28-3.83a62.64,62.64,0,0,1-7.86-.53,40.84,40.84,0,0,1,1.09-10.62l12.53-.34c3.38,4.63,10,8.49,14.93,9.93a4.42,4.42,0,0,1,3.1,3.26.09.09,0,0,0,0,.07A6,6,0,0,1,334,345.86Z"/><path class="cls-20" d="M310.64,342.77c2.68,0,5.8,2.81,8.28,3.83a22.36,22.36,0,0,0,7.75,2,9.81,9.81,0,0,0,7.35-2.7,5.76,5.76,0,0,0,.43-1.27.11.11,0,0,1,0-.08,4.22,4.22,0,0,1,0,1.66,6.31,6.31,0,0,1-.43,1.29,9.86,9.86,0,0,1-7.35,2.69,21.92,21.92,0,0,1-7.75-2c-2.48-1-5.6-3.87-8.28-3.82a60.61,60.61,0,0,1-7.73-.44c-.06-.57-.09-1.09-.13-1.69A62.64,62.64,0,0,0,310.64,342.77Z"/><path class="cls-20" d="M275.28,347a17.94,17.94,0,0,0,.37,3.8,8.79,8.79,0,0,0,3.47,5.54,10.94,10.94,0,0,0,5.52,1.47,12,12,0,0,0,5.05-.52,5.72,5.72,0,0,0,3-2.41.06.06,0,0,0,0,.06,5.26,5.26,0,0,1-3.4,3.54,12.18,12.18,0,0,1-5.05.53,11.23,11.23,0,0,1-5.52-1.47A8.76,8.76,0,0,1,275.2,352a18.7,18.7,0,0,1-.38-3.8,6.34,6.34,0,0,0-2-4.64c-.31-.31-.62-.61-.89-.92a2.29,2.29,0,0,1-.54-1.66,2.32,2.32,0,0,1,.07-.69c.46.53,1.54,1.81,1.82,2.07A6.48,6.48,0,0,1,275.28,347Z"/><path class="cls-11" d="M284.86,333.8a13.73,13.73,0,0,0,1,7.7,29,29,0,0,0,4.08,6.71,19.68,19.68,0,0,1,2.17,3.11,5.61,5.61,0,0,1,.61,3.59,5.69,5.69,0,0,1-2.95,2.41,12,12,0,0,1-5.05.52,10.92,10.92,0,0,1-5.52-1.47,8.8,8.8,0,0,1-3.48-5.54,18.62,18.62,0,0,1-.37-3.8,6.45,6.45,0,0,0-2-4.64c-.27-.26-1.36-1.54-1.81-2.07a14.14,14.14,0,0,1,1.86-5.38Z"/><path class="cls-20" d="M321.86,210.08l-1.09,71.45-3.38,50c-8.52,5.43-14.7,1-14.7,1-3.26-23.7-3.69-38.27-1.92-48.13l-1.61-38.55-4.86,40-8.13,49.1c-8.75,5.68-14.93,0-14.93,0,0-18.16-1.62-38.47,3.38-51.57A300.59,300.59,0,0,1,277,210.82Z"/><path class="cls-18" d="M301,231.11l-1.78,14.73L300,263.9l3.26-29.69c7.6-3,8.61-7.17,8.61-7.17A23.48,23.48,0,0,1,301,231.11Z"/><path class="cls-11" d="M305.63,147.65l8.35.88c6.85,6,10.38,18.7,8.91,32.68a245.65,245.65,0,0,0-1,28.84c-18.54,13.53-41.94,3.67-44.89.74l1.38-17.15a11.85,11.85,0,0,0-.94-5.64c-1.75-4.07-4.87-12.07-5.29-18.28a32.32,32.32,0,0,1,3.39-16l12.13-5.3Z"/><g class="cls-22"><path class="cls-6" d="M305.63,147.65l8.35.88c6.85,6,10.38,18.7,8.91,32.68a245.65,245.65,0,0,0-1,28.84c-18.54,13.53-41.94,3.67-44.89.74l1.38-17.15a11.85,11.85,0,0,0-.94-5.64c-1.75-4.07-4.87-12.07-5.29-18.28a32.32,32.32,0,0,1,3.39-16l12.13-5.3Z"/></g><path class="cls-6" d="M308,159.86a90.52,90.52,0,0,1,6.88,32.59l-3.45,7.4L306,192.78a279.57,279.57,0,0,0-.64-32.49Z"/><path class="cls-6" d="M308.25,153.79a25.72,25.72,0,0,1-.3,6.07,4.83,4.83,0,0,1-2.59.48,21,21,0,0,1-4.17-5l4.17-1.51Z"/><path class="cls-20" d="M293.37,139.33a5.56,5.56,0,0,1-3.49-6.45,7.31,7.31,0,0,1-.93-9.36,9.2,9.2,0,0,1,.68-7.86,9.18,9.18,0,0,1,.27-5.14,5,5,0,0,1-.66-5.56,4.86,4.86,0,0,1,4.92-2.49,4.91,4.91,0,0,1,4.34-2.42,5.1,5.1,0,0,1,4.35,2.63,5.26,5.26,0,0,1,4.56-1.54,5.39,5.39,0,0,1,4,2.72,3.8,3.8,0,0,1,3.77-.27,4,4,0,0,1,2.48,3,4.84,4.84,0,0,1,5.16,2.6,4.47,4.47,0,0,1-1.26,5.36c2.22,3.26-1,6-3.5,4.34-2.74,9.55-19.84,3-19.84,3Z"/><path class="cls-17" d="M293.29,132.91l-1,12.86a14.26,14.26,0,0,0,9.92,6.52c.83.12,2.32,1.71,3.13,1.51.45-.12.28-1.89.66-2.17a3,3,0,0,0,.56-4.24,2.92,2.92,0,0,0-.56-.55,1.65,1.65,0,0,1-.65-1.44l.31-4.18c-1.91-.44-3.79-.92-5.43-1.41A10.11,10.11,0,0,1,293.29,132.91Z"/><path class="cls-18" d="M293.29,132.91l-1,12.86a14.26,14.26,0,0,0,9.92,6.52c.83.12,2.32,1.71,3.13,1.51.45-.12.28-1.89.66-2.17a3,3,0,0,0,.56-4.24,2.92,2.92,0,0,0-.56-.55,1.65,1.65,0,0,1-.65-1.44l.31-4.18c-1.91-.44-3.79-.92-5.43-1.41A10.11,10.11,0,0,1,293.29,132.91Z"/><path class="cls-9" d="M305.35,145.38l.31-4.18c-1.91-.44-3.79-.93-5.43-1.42a10.07,10.07,0,0,1-6.69-6.3,13,13,0,0,0,2.23,6.39C297.15,141.6,303.89,145.11,305.35,145.38Z"/><path class="cls-17" d="M318,118.92c-1.18.67-2.18,1.57-3.64,1.33a3.39,3.39,0,0,1-2.18-1.32,2.52,2.52,0,0,1-4.54-1.6,3,3,0,0,1-2.56.26,25.39,25.39,0,0,1-2.23-1.32,5.92,5.92,0,0,1-2.49,2.63,6.78,6.78,0,0,1-3.9.51,23,23,0,0,1-2,6.92,1.37,1.37,0,0,1-1.18.81c-.9,0-1.2-1-1.4-1.8a5.89,5.89,0,0,0-1.22-2.51,2.9,2.9,0,0,0-2.51-1,2.86,2.86,0,0,0-1.84,1.28,5,5,0,0,0-.73,2.17,6.92,6.92,0,0,0,.46,3.76,4.68,4.68,0,0,0,2.71,2.56,3.4,3.4,0,0,0,3.5-.64v.24a11.61,11.61,0,0,0,0,1.18,9.52,9.52,0,0,0,5.05,7.6c1.46.77,3.1,1.57,4.77,2.35.82.38,1.66.76,2.5,1.08a6.5,6.5,0,0,0,8.38-3.14C316.05,134,318.68,126.27,318,118.92Z"/><path class="cls-18" d="M318,118.92c-1.18.67-2.18,1.57-3.64,1.33a3.39,3.39,0,0,1-2.18-1.32,2.52,2.52,0,0,1-4.54-1.6,3,3,0,0,1-2.56.26,25.39,25.39,0,0,1-2.23-1.32,5.92,5.92,0,0,1-2.49,2.63,6.78,6.78,0,0,1-3.9.51,23,23,0,0,1-2,6.92,1.37,1.37,0,0,1-1.18.81c-.9,0-1.2-1-1.4-1.8a5.89,5.89,0,0,0-1.22-2.51,2.9,2.9,0,0,0-2.51-1,2.86,2.86,0,0,0-1.84,1.28,5,5,0,0,0-.73,2.17,6.92,6.92,0,0,0,.46,3.76,4.68,4.68,0,0,0,2.71,2.56,3.4,3.4,0,0,0,3.5-.64v.24a11.61,11.61,0,0,0,0,1.18,9.52,9.52,0,0,0,5.05,7.6c1.46.77,3.1,1.57,4.77,2.35.82.38,1.66.76,2.5,1.08a6.5,6.5,0,0,0,8.38-3.14C316.05,134,318.68,126.27,318,118.92Z"/><path class="cls-11" d="M310.55,125.92l-.73-.2-.78-.23a11.46,11.46,0,0,0-10.1-4l-.46,1.58.35.34a16.39,16.39,0,0,1-.51,3.26,4.34,4.34,0,0,0,.36,3.1,4.91,4.91,0,0,0,2.88,1.69,6.11,6.11,0,0,0,2.68.37,4.32,4.32,0,0,0,2.68-1.85c.65-.88.76-1.47,1.57-2.53a.88.88,0,0,1,1-.31.83.83,0,0,1,.61.77c.1,1.31-.13,1.87-.06,3a4.22,4.22,0,0,0,1.16,2.88,5.38,5.38,0,0,0,2.3,1.09,3.48,3.48,0,0,0,4.69-1.5,3.42,3.42,0,0,0,.32-.93,17.21,17.21,0,0,1,1.25-3l.46-.11.45-1.59A10.15,10.15,0,0,0,310.55,125.92Zm-2.5.17-.23.55a13.51,13.51,0,0,1-1.61,2.78,3.6,3.6,0,0,1-2.1,1.46,4.62,4.62,0,0,1-1.95-.24l-.33-.1a4.16,4.16,0,0,1-2.38-1.35,3.39,3.39,0,0,1-.25-2.46,5.17,5.17,0,0,1,.16-.84c.18-.77.7-2.42,1.09-3.61a10.21,10.21,0,0,1,2.74.41,10.36,10.36,0,0,1,4.86,3.06c.1.08,0,.33,0,.33Zm9.92,5.15c-.1.26-.18.53-.29.79a3.54,3.54,0,0,1-1.46,2,3.67,3.67,0,0,1-2.57-.08l-.32-.09a4,4,0,0,1-1.65-.79,3.5,3.5,0,0,1-.91-2.32,14.29,14.29,0,0,1,.15-3.2l.11-.59s.05-.27.15-.3a9.39,9.39,0,0,1,5.43-.12,9,9,0,0,1,2.37,1.09c-.3,1.19-.74,2.87-1,3.61Z"/><path class="cls-11" d="M298.94,121.44l-9.36.61a3.8,3.8,0,0,1,1.44,1.26c.06.1,7.46-.29,7.46-.29Z"/><polygon class="cls-19" points="309.36 127.22 312.14 133.62 307.81 133.88 309.36 127.22"/><polygon class="cls-18" points="309.36 127.22 312.14 133.62 307.81 133.88 309.36 127.22"/><path class="cls-20" d="M303.12,126.13a1.23,1.23,0,1,0,1.52-.84h0A1.23,1.23,0,0,0,303.12,126.13Z"/><path class="cls-20" d="M313.08,128.64a1.23,1.23,0,0,0,2.35.68,1.21,1.21,0,0,0-.83-1.5h0a1.2,1.2,0,0,0-1.5.81Z"/><path class="cls-20" d="M314,123.25l3,1.25a1.71,1.71,0,0,0-.92-1.76A2.06,2.06,0,0,0,314,123.25Z"/><path class="cls-20" d="M306.77,120.75l-3.26.49a1.76,1.76,0,0,1,1.33-1.49A2.1,2.1,0,0,1,306.77,120.75Z"/><path class="cls-19" d="M303,134.84l3.14,2.17a2.25,2.25,0,0,1-2.69.34A2,2,0,0,1,303,134.84Z"/><path class="cls-23" d="M303,134.84l3.14,2.17a2.25,2.25,0,0,1-2.69.34A2,2,0,0,1,303,134.84Z"/><path class="cls-19" d="M304.59,137.64a2,2,0,0,1-1.17-.29,1.85,1.85,0,0,1-.64-1.92,2.08,2.08,0,0,1,1.81,2.17Z"/><path class="cls-11" d="M305.36,153.79c-3.61,1.32-6.8,7.72-6.8,7.72-9.44-8-10.92-13-10.92-13a19,19,0,0,1,4.57-4.84Z"/><path class="cls-11" d="M305.36,153.79c2.74.07,5.17,3.9,5.17,3.9.43-6.69-5.17-11.84-5.17-11.84Z"/><path class="cls-2" d="M321.17,214.32l8.57-34.86a4.14,4.14,0,0,1,1.94-2.59L353,164.62a.8.8,0,0,1,.4-.11h0a2,2,0,0,1,1.94,1.36h0a.91.91,0,0,1,.05.54l-8.53,34.86a4.17,4.17,0,0,1-1.94,2.59l-21.33,12.23a.81.81,0,0,1-.55.08h0a2.46,2.46,0,0,1-1.77-1.34.11.11,0,0,1,0-.08h0A.79.79,0,0,1,321.17,214.32Z"/><path class="cls-18" d="M322.35,215.2l8.53-34.87a4.09,4.09,0,0,1,1.94-2.58l21.28-12.26a.82.82,0,0,1,1.13.3.81.81,0,0,1,.09.61l-8.53,34.86a4.17,4.17,0,0,1-1.94,2.59l-21.3,12.24a.83.83,0,0,1-1.21-.86Z"/><path class="cls-17" d="M346.77,192.75l-.79.43a3,3,0,0,1-1.57.35l-3.45-.22a1.61,1.61,0,0,0-1.69,1.31h0a1.62,1.62,0,0,0,1.21,1.86l.64.15-.76,4.44a2.8,2.8,0,0,0,2.27,3.25h.06l2,.3a3.77,3.77,0,0,0,2.35-.43h0a3.65,3.65,0,0,0,1.76-2.3l2.1-8.2a5.51,5.51,0,0,0-1.08-4.85h0A6.06,6.06,0,0,1,346.77,192.75Z"/><path class="cls-18" d="M346.77,192.75l-.79.43a3,3,0,0,1-1.57.35l-3.45-.22a1.61,1.61,0,0,0-1.69,1.31h0a1.62,1.62,0,0,0,1.21,1.86l.64.15-.76,4.44a2.8,2.8,0,0,0,2.27,3.25h.06l2,.3a3.77,3.77,0,0,0,2.35-.43h0a3.65,3.65,0,0,0,1.76-2.3l2.1-8.2a5.51,5.51,0,0,0-1.08-4.85h0A6.06,6.06,0,0,1,346.77,192.75Z"/><path class="cls-9" d="M341.12,196.63a8.82,8.82,0,0,0,5.11-.25C344.18,198.34,342.52,197.7,341.12,196.63Z"/><path class="cls-18" d="M272.31,164.24a27.54,27.54,0,0,0-.19,5.52c.42,6.2,3.54,14.21,5.29,18.27a12.28,12.28,0,0,1,.87,3.26c4.47-7.7,6.06-11.77,6.25-21.88Z"/><path class="cls-17" d="M255.14,184.37l-21.64-4.5-1.71,7.2,21.26,10.65a13.06,13.06,0,0,0,3.45-6.3A9.2,9.2,0,0,0,255.14,184.37Z"/><path class="cls-18" d="M255.14,184.37l-21.64-4.5-1.71,7.2,21.26,10.65a13.06,13.06,0,0,0,3.45-6.3A9.2,9.2,0,0,0,255.14,184.37Z"/><path class="cls-11" d="M275.51,153.79c-10.74,5.2-8.93,13.5-18.79,30.9l-1.58-.32a9.2,9.2,0,0,1,1.36,7,13.06,13.06,0,0,1-3.45,6.3l4.69,1.3a11.85,11.85,0,0,0,13.33-5.28l11.06-18.29C288.07,165.88,284.61,151.16,275.51,153.79Z"/><path class="cls-21" d="M275.51,153.79c-10.74,5.2-8.93,13.5-18.79,30.9l-1.58-.32a9.2,9.2,0,0,1,1.36,7,13.06,13.06,0,0,1-3.45,6.3l4.69,1.3a11.85,11.85,0,0,0,13.33-5.28l11.06-18.29C288.07,165.88,284.61,151.16,275.51,153.79Z"/><path class="cls-18" d="M265.64,186.55l-9-1.86.49-.89C263.47,181.26,265.64,186.55,265.64,186.55Z"/><path class="cls-11" d="M255.52,198.71c3.53-2.11,6.64-9.1,1.52-14.24a3.91,3.91,0,0,0-1.83-1.09l-3.36-.83a2.62,2.62,0,0,0-2.09.39l-.25.17,2.88.59c5.63,4.35,1.93,12.64-1.37,12.91L247.76,195a1.51,1.51,0,0,0,.72,1.86,27.37,27.37,0,0,0,5.21,2.19A2.66,2.66,0,0,0,255.52,198.71Z"/><path class="cls-17" d="M234.93,180a4.51,4.51,0,0,0-3.92-2.27,14.58,14.58,0,0,0-4.67.83,15,15,0,0,1-3.38.68,1.42,1.42,0,0,0-1.36,1.25h0a1.39,1.39,0,0,0,1.23,1.53h.11c1.42,0,2.87.16,4.27.12a43.91,43.91,0,0,1-10.79,9.22,1.61,1.61,0,0,0-.61,2.19,1.52,1.52,0,0,0,.26.35h0a1.61,1.61,0,0,0,1.86.3,58,58,0,0,0,7.49-4.79,42.08,42.08,0,0,1-7.17,5.94,1.62,1.62,0,0,0,0,2.69h0a1.65,1.65,0,0,0,1.75.08,41,41,0,0,0,9.25-7.61,34.84,34.84,0,0,1-5.25,5.93,1.56,1.56,0,0,0-.09,2.18h0a1.51,1.51,0,0,0,2,.21A29.78,29.78,0,0,0,232.8,192,29.3,29.3,0,0,1,228,198.7a1,1,0,0,0,.05,1.42l.06,0h0a1,1,0,0,0,1.29,0A40.1,40.1,0,0,0,239,188.4a11.27,11.27,0,0,0,1.2-3.79,5,5,0,0,0-1.08-3.75A4.35,4.35,0,0,0,234.93,180Z"/><path class="cls-18" d="M234.93,180a4.51,4.51,0,0,0-3.92-2.27,14.58,14.58,0,0,0-4.67.83,15,15,0,0,1-3.38.68,1.42,1.42,0,0,0-1.36,1.25h0a1.39,1.39,0,0,0,1.23,1.53h.11c1.42,0,2.87.16,4.27.12a43.91,43.91,0,0,1-10.79,9.22,1.61,1.61,0,0,0-.61,2.19,1.52,1.52,0,0,0,.26.35h0a1.61,1.61,0,0,0,1.86.3,58,58,0,0,0,7.49-4.79,42.08,42.08,0,0,1-7.17,5.94,1.62,1.62,0,0,0,0,2.69h0a1.65,1.65,0,0,0,1.75.08,41,41,0,0,0,9.25-7.61,34.84,34.84,0,0,1-5.25,5.93,1.56,1.56,0,0,0-.09,2.18h0a1.51,1.51,0,0,0,2,.21A29.78,29.78,0,0,0,232.8,192,29.3,29.3,0,0,1,228,198.7a1,1,0,0,0,.05,1.42l.06,0h0a1,1,0,0,0,1.29,0A40.1,40.1,0,0,0,239,188.4a11.27,11.27,0,0,0,1.2-3.79,5,5,0,0,0-1.08-3.75A4.35,4.35,0,0,0,234.93,180Z"/><path class="cls-9" d="M227.2,182.13c.75,2.56,4.78,2.82,6,2C229.5,187.06,226.53,183.56,227.2,182.13Z"/><g id="freepik--character-1--inject-69"><path class="cls-2" d="M113,328.83l6.32-13.12h0c7.06-14.72,13.31-31.35,25.75-27.48l-13.28,35.64-2.69,5.65,6.41,7.06-.46,16.84-20.64-17.95A5.59,5.59,0,0,1,113,328.83Z"/><path class="cls-18" d="M113,328.83l6.32-13.12h0c7.06-14.72,13.31-31.35,25.75-27.48l-13.28,35.64-2.69,5.65,6.41,7.06-.46,16.84-20.64-17.95A5.59,5.59,0,0,1,113,328.83Z"/><path class="cls-10" d="M125.41,334.57s2.9-2.4,3.69-5.05l1.6,1.76A8.2,8.2,0,0,1,125.41,334.57Z"/><path class="cls-10" d="M131.19,331.82l4.34,4.76-.46,16.84-3.9-3.39A121.64,121.64,0,0,0,131.19,331.82Z"/><path class="cls-10" d="M131.45,300.82a24.56,24.56,0,0,1,9.49-1.52l-9.15,24.56-1.85,3.88A43.81,43.81,0,0,1,131.45,300.82Z"/><path class="cls-19" d="M171.72,274.48h0a6.53,6.53,0,0,1,4.05,3.18l4.46,8.12,14.52,16.59a39.43,39.43,0,0,1,8.79,17.33h0a8.09,8.09,0,0,1-2.1,7.42h0a8.1,8.1,0,0,1-11.46.13h0l-4.86-4.7,1.09-7.47-12.59-24.51-6.94-4.07a5.74,5.74,0,0,1-2.75-4l-.53-3.21Z"/><path class="cls-11" d="M164.33,502.06c.78,2.44,3.46,3.85,6,4s5.07-.51,7.6-1c5.64-1,11.08,0,16.71-.14a23.64,23.64,0,0,0,5.5-.59,9.07,9.07,0,0,0,4.69-2.77,6.15,6.15,0,0,0,1.36-2.95,5.83,5.83,0,0,1-1.36,4.6,9.07,9.07,0,0,1-4.69,2.77,23.64,23.64,0,0,1-5.5.59c-5.63.14-11.07-.87-16.71.15-2.52.45-5,1.17-7.6,1s-5.23-1.59-6-4a6.47,6.47,0,0,1-.19-2.59A5.05,5.05,0,0,0,164.33,502.06Z"/><path class="cls-11" d="M164.48,497.44c.35-1.7.69-3.42,1.09-5.12a7.73,7.73,0,0,1,.87-2.61,2.55,2.55,0,0,1,2.28-1.3c3.1-.42,7.43-1.54,10,.23a22.94,22.94,0,0,0,13.81,4c2.55-.09,5.11-.62,7.61-.3s5.17,1.72,5.93,4.16a5.08,5.08,0,0,1,.13,2.23,6.12,6.12,0,0,1-1.36,2.94,9.07,9.07,0,0,1-4.69,2.77,24.2,24.2,0,0,1-5.5.6c-5.62.13-11.07-.88-16.71.14-2.52.46-5,1.17-7.6,1s-5.22-1.6-6-4.05a5.8,5.8,0,0,1-.19-.94A12.33,12.33,0,0,1,164.48,497.44Z"/><g class="cls-15"><path class="cls-24" d="M164.33,502.06c.78,2.44,3.46,3.85,6,4s5.07-.51,7.6-1c5.64-1,11.08,0,16.71-.14a23.64,23.64,0,0,0,5.5-.59,9.07,9.07,0,0,0,4.69-2.77,6.15,6.15,0,0,0,1.36-2.95,5.83,5.83,0,0,1-1.36,4.6,9.07,9.07,0,0,1-4.69,2.77,23.64,23.64,0,0,1-5.5.59c-5.63.14-11.07-.87-16.71.15-2.52.45-5,1.17-7.6,1s-5.23-1.59-6-4a6.47,6.47,0,0,1-.19-2.59A5.05,5.05,0,0,0,164.33,502.06Z"/><path class="cls-16" d="M164.48,497.44c.35-1.7.69-3.42,1.09-5.12a7.73,7.73,0,0,1,.87-2.61,2.55,2.55,0,0,1,2.28-1.3c3.1-.42,7.43-1.54,10,.23a22.94,22.94,0,0,0,13.81,4c2.55-.09,5.11-.62,7.61-.3s5.17,1.72,5.93,4.16a5.08,5.08,0,0,1,.13,2.23,6.12,6.12,0,0,1-1.36,2.94,9.07,9.07,0,0,1-4.69,2.77,24.2,24.2,0,0,1-5.5.6c-5.62.13-11.07-.88-16.71.14-2.52.46-5,1.17-7.6,1s-5.22-1.6-6-4.05a5.8,5.8,0,0,1-.19-.94A12.33,12.33,0,0,1,164.48,497.44Z"/></g><path class="cls-17" d="M179.42,483.22l.22,6.67a2.65,2.65,0,0,1-2.46,2.74,41.89,41.89,0,0,1-6.72-.06A3.81,3.81,0,0,1,167,489l-.27-4.92Z"/><path class="cls-11" d="M135.83,479.67a4.47,4.47,0,0,0,4,4.53,8,8,0,0,0,7.82-3.26c.84-1.21,1.31-2.65,2.11-3.9a17.74,17.74,0,0,1,4.34-4.26,18.13,18.13,0,0,0,4.42-4.23,6.23,6.23,0,0,0,.84-5.65,3.19,3.19,0,0,1,.41.72,6.4,6.4,0,0,1-.78,6,18.83,18.83,0,0,1-4.51,4.35,17.8,17.8,0,0,0-4.47,4.4c-.82,1.28-1.31,2.76-2.18,4a8.06,8.06,0,0,1-8,3.31,5,5,0,0,1-3.26-1.83,6.14,6.14,0,0,1-.93-3.83A.48.48,0,0,0,135.83,479.67Z"/><path class="cls-11" d="M137.85,471.29c2-3.56,6.21-6.15,9.44-8.7a12.13,12.13,0,0,1,6.27-2.84,5.85,5.85,0,0,1,5.82,3,1.27,1.27,0,0,1,.06.18,6.25,6.25,0,0,1-.83,5.65,18.54,18.54,0,0,1-4.42,4.24,17.57,17.57,0,0,0-4.35,4.25c-.79,1.25-1.27,2.69-2.11,3.9a7.94,7.94,0,0,1-7.82,3.26,5.05,5.05,0,0,1-3.15-1.77,5.2,5.2,0,0,1-.89-2.76,7.69,7.69,0,0,1,0-1A15.57,15.57,0,0,1,137.85,471.29Z"/><g class="cls-15"><path class="cls-24" d="M135.83,479.67a4.47,4.47,0,0,0,4,4.53,8,8,0,0,0,7.82-3.26c.84-1.21,1.31-2.65,2.11-3.9a17.74,17.74,0,0,1,4.34-4.26,18.13,18.13,0,0,0,4.42-4.23,6.23,6.23,0,0,0,.84-5.65,3.19,3.19,0,0,1,.41.72,6.4,6.4,0,0,1-.78,6,18.83,18.83,0,0,1-4.51,4.35,17.8,17.8,0,0,0-4.47,4.4c-.82,1.28-1.31,2.76-2.18,4a8.06,8.06,0,0,1-8,3.31,5,5,0,0,1-3.26-1.83,6.14,6.14,0,0,1-.93-3.83A.48.48,0,0,0,135.83,479.67Z"/><path class="cls-16" d="M137.85,471.29c2-3.56,6.21-6.15,9.44-8.7a12.13,12.13,0,0,1,6.27-2.84,5.85,5.85,0,0,1,5.82,3,1.27,1.27,0,0,1,.06.18,6.25,6.25,0,0,1-.83,5.65,18.54,18.54,0,0,1-4.42,4.24,17.57,17.57,0,0,0-4.35,4.25c-.79,1.25-1.27,2.69-2.11,3.9a7.94,7.94,0,0,1-7.82,3.26,5.05,5.05,0,0,1-3.15-1.77,5.2,5.2,0,0,1-.89-2.76,7.69,7.69,0,0,1,0-1A15.57,15.57,0,0,1,137.85,471.29Z"/></g><path class="cls-17" d="M146.65,468.2v6.07a10.17,10.17,0,0,1-9.44-.42l-.57-5.43Z"/><path class="cls-11" d="M135.05,358.11c-1.82,5.43.41,31.4,1.47,56.27-3.94,9.41-2.88,36.11-.61,55.08,0,0,4,2.42,11.08,0l8.93-52.34,1.24-29.58s2.25,26.25,4.83,43.08c-2.43,12.9-1.82,15.32,4.17,55a15,15,0,0,0,13.42,0c3.39-55.71,2.18-106.46,1.5-124.76Z"/><path class="cls-18" d="M135.05,358.11l46.06,2.73c.21,6.2.51,16.17.66,28.82a48.06,48.06,0,0,1-23.9,5.12c-.42-4.4-.66-7.24-.66-7.24l-.31,7.17a47.79,47.79,0,0,1-21.72-7C134.37,373.25,133.89,361.57,135.05,358.11Z"/><path class="cls-18" d="M156.42,405.55l1-24.12c-6.24,0-12-4.67-16.43-9.09,4.23,7.54,12.42,10.87,12.42,10.87Z"/><path class="cls-2" d="M130.7,378.62c.42-6.34,3.26-33.67,2.81-40.19-.93-13.13-2.9-25.33-2.66-31.74.35-9.55,1.52-20.33,16.3-18.17l15.76,1.55,8,1.93L182,315.08v28.67l1.5,41.28a57.62,57.62,0,0,1-32.33,4,121,121,0,0,1-3.47-21.15c-1.52,6.76-1.51,13.4-1.69,20C137.51,385.38,131.85,381.21,130.7,378.62Z"/><path class="cls-18" d="M130.7,378.62c.42-6.34,3.26-33.67,2.81-40.19-.93-13.13-2.9-25.33-2.66-31.74.35-9.55,1.52-20.33,16.3-18.17l15.76,1.55,8,1.93L182,315.08v28.67l1.5,41.28a57.62,57.62,0,0,1-32.33,4,121,121,0,0,1-3.47-21.15c-1.52,6.76-1.51,13.4-1.69,20C137.51,385.38,131.85,381.21,130.7,378.62Z"/><path class="cls-10" d="M182.06,321.16l-11.39-12.54a54.32,54.32,0,0,0,11.39,23.43Z"/><path class="cls-20" d="M170.51,257.61a2.24,2.24,0,0,0,.33-2.47,2.94,2.94,0,0,0,2.35-.32,2.2,2.2,0,0,0,1-2,1.82,1.82,0,0,0-1.51-1.6,3.14,3.14,0,0,0,2.35-3.33,3.79,3.79,0,0,0-2.62-2.92,9.36,9.36,0,0,0-4.11-.23,3.28,3.28,0,0,0-1.74-3.89,4,4,0,0,0-3.77.62,12.26,12.26,0,0,0-2.67,2.94,11.74,11.74,0,0,0-15.92,4.74,11.3,11.3,0,0,0-.78,1.78,8,8,0,0,0-5.22,5.43,12.66,12.66,0,0,0,.44,7.6,35.21,35.21,0,0,0,3.58,6.89l2,3.12c.83,1.3,3,4.55,3.77,5.85a12.24,12.24,0,0,0,11.66-.72,19.76,19.76,0,0,0,7.48-9.28A63.14,63.14,0,0,0,170.51,257.61Z"/><path class="cls-25" d="M153,281.27a11.26,11.26,0,0,1-5.1-1.18h0L146,277.21c-.75-1.15-1.5-2.31-1.91-3-.67-1.09-1.33-2.08-2-3.13a35.5,35.5,0,0,1-3.59-6.92,13.13,13.13,0,0,1-.45-7.77,8.23,8.23,0,0,1,5.26-5.55,12.45,12.45,0,0,1,6.94-7.16,12.18,12.18,0,0,1,9.85.56,11.65,11.65,0,0,1,2.62-2.85,4.21,4.21,0,0,1,4-.64,3.56,3.56,0,0,1,1.94,3.85,9,9,0,0,1,3.9.26,4,4,0,0,1,2.76,3.09,3.15,3.15,0,0,1-.61,2.24,3.62,3.62,0,0,1-1.3,1.09,2,2,0,0,1,1.09,1.57,2.34,2.34,0,0,1-1.09,2.17,3.12,3.12,0,0,1-2.17.45,2.18,2.18,0,0,1-.45,2.28A63.87,63.87,0,0,1,167.39,270a19.91,19.91,0,0,1-7.61,9.38A13,13,0,0,1,153,281.27Zm-4.88-1.51a12,12,0,0,0,11.41-.73,20,20,0,0,0,7.41-9.2,64,64,0,0,0,3.39-12.22v-.07h0a2,2,0,0,0,.28-2.24l-.21-.43.46.16a2.56,2.56,0,0,0,2.17-.3,2,2,0,0,0,.94-1.82,1.62,1.62,0,0,0-1.34-1.42l-1.48-.17,1.47-.23a2.73,2.73,0,0,0,1.66-1.09,2.64,2.64,0,0,0,.53-1.95,3.64,3.64,0,0,0-2.5-2.76,9.22,9.22,0,0,0-4-.22H168l.11-.3a3.1,3.1,0,0,0-1.62-3.64,3.86,3.86,0,0,0-3.58.59,11.63,11.63,0,0,0-2.62,2.89l-.1.15-.15-.08a11.82,11.82,0,0,0-9.68-.62,11.94,11.94,0,0,0-6.75,7v.09h-.09a7.9,7.9,0,0,0-5.1,5.31,12.64,12.64,0,0,0,.45,7.52,34.2,34.2,0,0,0,3.56,6.84c.64,1.09,1.3,2.08,2,3.12.41.66,1.16,1.82,1.91,3Z"/><path class="cls-19" d="M172.32,265.7l2.48,4.35-2.46.91A51.27,51.27,0,0,0,172.32,265.7Z"/><path class="cls-17" d="M170.51,257.61a34.47,34.47,0,0,1,1.81,8.09,50.88,50.88,0,0,1,0,5.24,51.48,51.48,0,0,1-.85,7.31,8,8,0,0,1-1.42,3.67,5.77,5.77,0,0,1-4,1.82,16.83,16.83,0,0,1-4.47-.42v7.09c-5.43,1.27-9.85,1.84-14.06-1.42l.44-9.12a13.31,13.31,0,0,0,7.61-1.2c3.71-2,4.75-5.21,4.23-7a2.77,2.77,0,0,1-2.91,1,3.88,3.88,0,0,1-2.41-1.91,7.78,7.78,0,0,1-.9-3,5.41,5.41,0,0,1,.55-3.74,3.91,3.91,0,0,1,4.22-1.42,6,6,0,0,1,3.54,3,8.39,8.39,0,0,1,.63,1.36.84.84,0,0,0,1.06.53.85.85,0,0,0,.57-.75,11.24,11.24,0,0,0-1.09-5.93,4.18,4.18,0,0,0,2,.45,2.45,2.45,0,0,0,1.9-.88,1.73,1.73,0,0,0,.08-2C168.82,259.23,170.51,257.61,170.51,257.61Z"/><path class="cls-2" d="M174.48,294.3a11.51,11.51,0,0,1,12-4.34c5.1,6.41,13,13.48,16.68,21.72a24.42,24.42,0,0,1,2.17,7.08,12,12,0,0,1-1.2,7.2,9.55,9.55,0,0,1-8.08,4.82c-3.26,0-7-3.41-9.51-5.54.41-10.12,3.4-13.47,3.4-13.47Z"/><path class="cls-18" d="M174.48,294.3a11.51,11.51,0,0,1,12-4.34c5.1,6.41,13,13.48,16.68,21.72a24.42,24.42,0,0,1,2.17,7.08,12,12,0,0,1-1.2,7.2,9.55,9.55,0,0,1-8.08,4.82c-3.26,0-7-3.41-9.51-5.54.41-10.12,3.4-13.47,3.4-13.47Z"/><path class="cls-10" d="M174.48,294.3a10.67,10.67,0,0,1,2.73-2.63,19.45,19.45,0,0,1,6.71,3.84,54.3,54.3,0,0,1,6.68,7.29c2.61,3.26,4.93,6.52,7.54,9.77l-11.13,8c1-6.43,3-8.69,3-8.69Z"/><path class="cls-2" d="M198.14,312.54l-14.94-14.7A21,21,0,0,0,170.92,292h-.28c-6.32,13.86,2.05,20.64,2.05,20.64l13.88,12.76A25.1,25.1,0,0,0,198.14,312.54Z"/><path class="cls-18" d="M198.14,312.54l-14.94-14.7A21,21,0,0,0,170.92,292h-.28c-6.32,13.86,2.05,20.64,2.05,20.64l13.88,12.76A25.1,25.1,0,0,0,198.14,312.54Z"/><path class="cls-1" d="M146.92,285.22l-1.35,3.89c6.43,8.15,19.37,2.57,19.37,2.57l-.72-4.59C156.16,288.75,146.92,285.22,146.92,285.22Z"/></g><text class="cls-26" transform="matrix(0.96, -0.55, -0.04, 1, 97.51, 191.77)">About Us</text><line class="cls-27" x1="92.28" y1="197.06" x2="223.09" y2="122.28"/></svg>