<?xml version="1.0" encoding="utf-8"?>
<!-- Generator: Adobe Illustrator 25.3.1, SVG Export Plug-In . SVG Version: 6.00 Build 0)  -->
<svg version="1.1" id="Layer_1" xmlns="http://www.w3.org/2000/svg" xmlns:xlink="http://www.w3.org/1999/xlink" x="0px" y="0px"
	 viewBox="0 0 155 40" style="enable-background:new 0 0 155 40;" xml:space="preserve">
<style type="text/css">
	.st0{fill:#FFFFFF;}
	.st1{fill:url(#SVGID_1_);}
	.st2{fill:url(#SVGID_2_);}
	.st3{fill:#8979E8;}
	.st4{fill:none;}
</style>
<g id="XMLID_28_">
	<path id="XMLID_31_" class="st0" d="M19.66,22.45c-0.14,0-0.27-0.04-0.39-0.08c-0.33-0.11-0.64-0.27-0.94-0.45
		c-0.48-0.28-0.92-0.61-1.3-1c-0.46-0.48-0.85-1.02-1.14-1.62c-0.06-0.13-0.12-0.27-0.16-0.41c-0.06-0.19-0.03-0.37,0.06-0.55
		c0.1-0.2,0.24-0.36,0.41-0.49c0.09-0.07,0.17-0.14,0.27-0.2c0.07-0.05,0.16-0.08,0.24-0.1c0.07-0.01,0.13,0,0.19,0.03
		c0.15,0.07,0.26,0.17,0.36,0.29c0.19,0.24,0.34,0.49,0.47,0.77c0.01,0.03,0.02,0.05,0.03,0.08c0.02,0.07,0,0.14-0.05,0.19
		c-0.03,0.03-0.06,0.05-0.09,0.08c-0.13,0.09-0.27,0.16-0.42,0.21c-0.03,0.01-0.05,0.02-0.08,0.03c-0.16,0.07-0.2,0.28-0.15,0.4
		c0.08,0.18,0.19,0.34,0.31,0.49c0.37,0.45,0.82,0.82,1.33,1.1c0.14,0.07,0.29,0.05,0.41-0.07c0.03-0.03,0.06-0.07,0.08-0.11
		c0.07-0.13,0.14-0.26,0.22-0.39c0.02-0.04,0.05-0.07,0.08-0.1c0.07-0.09,0.2-0.11,0.31-0.06c0.12,0.06,0.23,0.13,0.34,0.2
		c0.23,0.15,0.45,0.32,0.65,0.52c0.03,0.03,0.05,0.06,0.08,0.09c0.06,0.08,0.06,0.17,0.04,0.26c-0.02,0.08-0.06,0.16-0.11,0.22
		c-0.17,0.25-0.4,0.44-0.66,0.58C19.91,22.43,19.79,22.45,19.66,22.45z"/>
	<path id="XMLID_303_" class="st0" d="M22.96,20c0,1.28,0,2.55,0,3.83c0,0.6,0,1.2,0,1.8c0,0.22-0.03,0.43-0.1,0.64
		c-0.14,0.41-0.39,0.73-0.75,0.96c-0.26,0.17-0.55,0.25-0.85,0.25c-0.38,0-0.77,0-1.15,0c-0.25,0-0.51,0-0.76,0
		c-0.25,0-0.51,0-0.76,0c-0.25,0-0.51,0-0.76,0c-0.26,0-0.51,0-0.77,0c-0.26,0-0.51,0-0.77,0c-0.31,0-0.61,0-0.92,0
		c-0.06,0-0.12,0-0.18,0c-0.35-0.02-0.67-0.14-0.94-0.36c-0.35-0.28-0.56-0.64-0.65-1.08c-0.03-0.13-0.04-0.27-0.04-0.41
		c0-0.32,0-0.64,0-0.96c0-0.32,0-0.65,0-0.97c0-0.32,0-0.65,0-0.97c0-0.31,0-0.62,0-0.92c0-0.32,0-0.65,0-0.97c0-0.32,0-0.63,0-0.95
		c0-0.32,0-0.65,0-0.97c0-0.32,0-0.65,0-0.97c0-0.31,0-0.62,0-0.93c0-0.32,0-0.65,0-0.97s0-0.65,0-0.97c0-0.23,0-0.47,0-0.7
		c0-0.45,0.14-0.85,0.41-1.19c0.26-0.32,0.59-0.53,0.99-0.61c0.11-0.02,0.21-0.03,0.32-0.03c0.43,0,0.86,0,1.29,0
		c0.43,0,0.85,0,1.28,0c0.43,0,0.86,0,1.29,0c0.43,0,0.86,0,1.29,0c0.27,0,0.54,0,0.81,0c0.45,0,0.84,0.16,1.17,0.48
		c0.31,0.31,0.49,0.68,0.55,1.12c0.01,0.1,0.01,0.21,0.01,0.31c0,0.32,0,0.65,0,0.97c0,0.32,0,0.64,0,0.97c0,0.32,0,0.63,0,0.95
		c0,0.32,0,0.65,0,0.97s0,0.65,0,0.97C22.96,19.51,22.96,19.75,22.96,20C22.96,20,22.96,20,22.96,20z M14.77,13.88
		c0,0.03,0,0.06,0,0.09c0,0.14,0,0.29,0,0.43c0,0.32,0,0.64,0,0.97c0,0.32,0,0.65,0,0.97c0,0.31,0,0.62,0,0.92c0,0.33,0,0.65,0,0.98
		c0,0.32,0,0.64,0,0.97c0,0.32,0,0.63,0,0.95c0,0.32,0,0.64,0,0.97c0,0.32,0,0.65,0,0.97c0,0.31,0,0.62,0,0.92c0,0.32,0,0.64,0,0.97
		c0,0.31,0,0.63,0,0.94c0,0.06,0,0.13,0,0.19c0,0.02,0.01,0.04,0.01,0.06c0.03,0,0.06,0,0.09,0c0.37,0,0.74,0,1.11,0
		c0.6,0,1.19,0,1.79,0c0.58,0,1.16,0,1.74,0c0.61,0,1.22,0,1.84,0c0.08,0,0.17,0,0.25,0c0.02,0,0.03-0.01,0.05-0.01
		c0-0.03,0-0.06,0-0.09c0-0.23,0-0.46,0-0.69c0-0.32,0-0.65,0-0.97c0-0.33,0-0.67,0-1c0-0.31,0-0.61,0-0.92c0-0.32,0-0.65,0-0.97
		c0-0.31,0-0.63,0-0.94c0-0.33,0-0.65,0-0.98c0-0.33,0-0.67,0-1c0-0.3,0-0.61,0-0.91c0-0.32,0-0.65,0-0.97c0-0.33,0-0.67,0-1
		c0-0.26,0-0.53,0-0.79c0-0.02,0-0.04-0.01-0.05c-0.01,0-0.02-0.01-0.03-0.01c-2.26,0-4.53,0-6.79,0
		C14.81,13.88,14.8,13.88,14.77,13.88z M18.26,26.91c0.38,0.01,0.71-0.31,0.71-0.7c0-0.4-0.33-0.71-0.7-0.71
		c-0.39,0-0.71,0.32-0.71,0.71C17.55,26.59,17.87,26.91,18.26,26.91z M20.55,26.49c0.19,0,0.37,0,0.56,0c0.03,0,0.07,0,0.1-0.01
		c0.1-0.04,0.16-0.15,0.14-0.25c-0.01-0.11-0.1-0.2-0.21-0.2c-0.02,0-0.04,0-0.07,0c-0.35,0-0.7,0-1.06,0c-0.02,0-0.05,0-0.07,0
		c-0.02,0-0.05,0.01-0.07,0.02c-0.1,0.05-0.15,0.16-0.13,0.27c0.02,0.11,0.12,0.19,0.22,0.18c0.02,0,0.04,0,0.06,0
		C20.2,26.49,20.37,26.49,20.55,26.49z M16.06,26.49C16.06,26.49,16.06,26.49,16.06,26.49c0.19,0,0.38,0,0.56,0
		c0.04,0,0.08,0,0.12-0.02c0.13-0.07,0.17-0.26,0.07-0.37c-0.05-0.06-0.11-0.08-0.18-0.08c-0.24,0-0.48,0-0.72,0
		c-0.14,0-0.28,0-0.42,0c-0.03,0-0.07,0-0.1,0.02c-0.09,0.03-0.14,0.12-0.14,0.22c0,0.1,0.06,0.19,0.15,0.22
		c0.03,0.01,0.06,0.01,0.1,0.01C15.69,26.49,15.87,26.49,16.06,26.49z M17.96,13.36c0.25,0,0.5,0,0.75,0c0.02,0,0.05,0,0.07,0
		c0.08-0.02,0.13-0.08,0.12-0.17c-0.01-0.08-0.07-0.14-0.14-0.14c-0.02,0-0.04,0-0.06,0c-0.36,0-0.73,0-1.09,0
		c-0.15,0-0.29,0-0.44,0c-0.04,0-0.08,0-0.11,0.03c-0.05,0.04-0.07,0.1-0.06,0.16c0.02,0.07,0.07,0.11,0.13,0.12
		c0.02,0,0.04,0,0.07,0C17.46,13.36,17.71,13.36,17.96,13.36z"/>
</g>
<path class="st0" d="M17.02,3.39c0.82-0.01,1.64-0.01,2.46,0c0.01,1.6,0,3.19,0,4.79c-2.93-0.28-5.95,0.53-8.3,2.33
	c-2.34,1.73-3.96,4.38-4.52,7.25c-0.83,0.03-1.66,0.01-2.5,0.01c0.43-3.08,1.96-5.98,4.19-8.12c2.32-2.27,5.43-3.66,8.64-3.98
	C17.05,4.91,17,4.15,17.02,3.39z"/>
<linearGradient id="SVGID_1_" gradientUnits="userSpaceOnUse" x1="20.4797" y1="13.5371" x2="34.7432" y2="13.5371">
	<stop  offset="0" style="stop-color:#8979E8"/>
	<stop  offset="0.1832" style="stop-color:#8576E4"/>
	<stop  offset="0.3697" style="stop-color:#796ED8"/>
	<stop  offset="0.5578" style="stop-color:#6461C4"/>
	<stop  offset="0.7471" style="stop-color:#484EA8"/>
	<stop  offset="0.9354" style="stop-color:#233685"/>
	<stop  offset="1" style="stop-color:#152D77"/>
</linearGradient>
<path class="st1" d="M20.48,5.84c3.01,0.42,5.85,1.94,7.97,4.13c2.32,2.33,3.7,5.51,4.03,8.77c0.75,0.05,1.51,0,2.26,0.02
	c0,0.82,0,1.65,0,2.47c-1.58,0-3.16,0-4.74,0c-0.01-0.6,0.14-1.19,0.03-1.78c-0.15-3.96-2.43-7.75-5.84-9.72
	c-1.14-0.69-2.41-1.13-3.71-1.41C20.47,7.5,20.48,6.67,20.48,5.84z"/>
<linearGradient id="SVGID_2_" gradientUnits="userSpaceOnUse" x1="1.7674" y1="26.4625" x2="16.0308" y2="26.4625">
	<stop  offset="0" style="stop-color:#152D77"/>
	<stop  offset="0.0646" style="stop-color:#233685"/>
	<stop  offset="0.2529" style="stop-color:#484EA8"/>
	<stop  offset="0.4422" style="stop-color:#6461C4"/>
	<stop  offset="0.6303" style="stop-color:#796ED8"/>
	<stop  offset="0.8168" style="stop-color:#8576E4"/>
	<stop  offset="1" style="stop-color:#8979E8"/>
</linearGradient>
<path class="st2" d="M1.77,18.76c1.58,0,3.16,0,4.74,0c-0.25,2.55,0.32,5.18,1.65,7.36c1.68,2.87,4.62,4.92,7.86,5.55
	c0.02,0.83,0,1.66,0.01,2.49c-3.01-0.42-5.85-1.94-7.97-4.13c-2.32-2.33-3.7-5.51-4.03-8.77c-0.75-0.05-1.51,0-2.26-0.02
	C1.77,20.41,1.77,19.59,1.77,18.76z"/>
<path class="st0" d="M29.84,22.24c0.83-0.03,1.67-0.01,2.5-0.01c-0.43,3.08-1.96,5.98-4.19,8.12c-2.32,2.27-5.43,3.67-8.64,3.97
	c-0.04,0.76,0,1.52-0.02,2.28c-0.82,0.01-1.64,0.01-2.46,0c-0.01-1.6,0-3.19,0-4.79c2.93,0.27,5.95-0.53,8.3-2.33
	C27.66,27.75,29.29,25.11,29.84,22.24z"/>
<path id="XMLID_122_" class="st0" d="M59.4,28.88v-5.53h-6.67v5.53h-2.56V15.21h2.56v5.76h6.67v-5.76h2.54v13.67H59.4z"/>
<path id="XMLID_127_" class="st0" d="M77.69,22.11c-0.04,3.53-2.19,7.07-6.96,7.07c-4.77,0-6.98-3.46-6.98-7.05
	c0-3.59,2.29-7.21,6.98-7.21C75.4,14.92,77.73,18.53,77.69,22.11z M66.27,22.16c0.06,2.25,1.26,4.65,4.46,4.65
	c3.2,0,4.4-2.42,4.44-4.67c0.04-2.3-1.24-4.88-4.44-4.88C67.53,17.26,66.21,19.86,66.27,22.16z"/>
<path id="XMLID_130_" class="st0" d="M88.5,15.17h2.56v13.69h-1.59v0.02l-7.14-9.24v9.22h-2.56V15.19h2.07l6.65,8.48V15.17z"/>
<path id="XMLID_132_" class="st0" d="M103.53,28.86H93.36c0-4.55,0-9.12,0-13.67h10.16v2.5H95.9v3.14h7.35v2.4H95.9v3.09h7.62V28.86
	z"/>
<path id="XMLID_134_" class="st3" d="M115.9,15.19v11.29h6.98v2.38h-9.54V15.19H115.9z"/>
<path id="XMLID_136_" class="st0" d="M124.7,28.86V15.19h2.54v13.67H124.7z"/>
<path id="XMLID_138_" class="st0" d="M138.42,18.49c-0.47-0.78-1.74-1.52-3.22-1.52c-1.9,0-2.81,0.8-2.81,1.82
	c0,1.19,1.4,1.52,3.03,1.72c2.83,0.35,5.47,1.09,5.47,4.36c0,3.05-2.68,4.36-5.7,4.36c-2.77,0-4.91-0.86-5.91-3.36l2.13-1.11
	c0.6,1.5,2.17,2.17,3.82,2.17c1.61,0,3.12-0.57,3.12-2.05c0-1.29-1.34-1.82-3.14-2.01c-2.77-0.33-5.33-1.07-5.33-4.14
	c0-2.81,2.75-3.96,5.26-3.98c2.11,0,4.31,0.61,5.33,2.71L138.42,18.49z"/>
<path id="XMLID_140_" class="st0" d="M146.37,17.54h-4.3v-2.34c3.92,0,7.23,0,11.17,0v2.34h-4.31v11.33h-2.56V17.54z"/>
<path class="st4" d="M39.6,22.48h3.84c0.14,0,0.28-0.01,0.41-0.03H39.6V22.48z"/>
<path class="st4" d="M39.6,17.63v0.01h4.14c-0.1-0.01-0.2-0.01-0.3-0.01H39.6z"/>
<path class="st3" d="M47.85,17.65c-0.74-1.42-2.21-2.48-4.41-2.48c-2.13,0-4.27,0.02-6.4,0.02v2.46h2.56v-0.01h3.84
	c0.1,0,0.2,0.01,0.3,0.01c2.82,0.28,2.87,4.43,0.11,4.8c-0.13,0.02-0.26,0.03-0.41,0.03H39.6v-0.03h-2.56v6.41h2.56v-4.02h3.84
	c2.16,0,3.61-1.02,4.37-2.39C48.61,20.99,48.63,19.12,47.85,17.65z"/>
<rect x="37.04" y="18.86" class="st0" width="2.56" height="2.37"/>
</svg>
