<?xml version="1.0" encoding="utf-8"?>
<!-- Generator: Adobe Illustrator 25.3.1, SVG Export Plug-In . SVG Version: 6.00 Build 0)  -->
<svg version="1.1" id="Layer_1" xmlns="http://www.w3.org/2000/svg" xmlns:xlink="http://www.w3.org/1999/xlink" x="0px" y="0px"
	 viewBox="0 0 130 132" style="enable-background:new 0 0 130 132;" xml:space="preserve">
<style type="text/css">
	.st0{fill:url(#SVGID_1_);}
	.st1{fill:url(#SVGID_2_);}
	.st2{fill:none;}
</style>
<g>
	<g id="XMLID_28_">
		<path id="XMLID_31_" d="M68.9,74.6c-0.5,0-0.9-0.1-1.4-0.3c-1.2-0.4-2.3-0.9-3.3-1.6c-1.7-1-3.2-2.1-4.6-3.5c-1.6-1.7-3-3.6-4-5.7
			c-0.2-0.5-0.4-0.9-0.6-1.4c-0.2-0.7-0.1-1.3,0.2-1.9c0.3-0.7,0.8-1.3,1.4-1.7c0.3-0.2,0.6-0.5,0.9-0.7c0.3-0.2,0.6-0.3,0.9-0.4
			c0.2,0,0.5,0,0.7,0.1c0.5,0.2,0.9,0.6,1.3,1c0.7,0.8,1.2,1.7,1.7,2.7c0,0.1,0.1,0.2,0.1,0.3c0.1,0.3,0,0.5-0.2,0.7
			c-0.1,0.1-0.2,0.2-0.3,0.3c-0.5,0.3-1,0.6-1.5,0.8c-0.1,0-0.2,0.1-0.3,0.1c-0.6,0.2-0.7,1-0.5,1.4c0.3,0.6,0.7,1.2,1.1,1.7
			c1.3,1.6,2.9,2.9,4.7,3.9c0.5,0.3,1,0.2,1.4-0.2c0.1-0.1,0.2-0.2,0.3-0.4c0.3-0.5,0.5-0.9,0.8-1.4c0.1-0.1,0.2-0.2,0.3-0.4
			c0.3-0.3,0.7-0.4,1.1-0.2c0.4,0.2,0.8,0.5,1.2,0.7c0.8,0.5,1.6,1.1,2.3,1.8c0.1,0.1,0.2,0.2,0.3,0.3c0.2,0.3,0.2,0.6,0.1,0.9
			c-0.1,0.3-0.2,0.5-0.4,0.8c-0.6,0.9-1.4,1.5-2.3,2C69.8,74.5,69.3,74.6,68.9,74.6z"/>
		<path id="XMLID_303_" d="M80.5,66c0,4.5,0,9,0,13.5c0,2.1,0,4.2,0,6.3c0,0.8-0.1,1.5-0.4,2.3c-0.5,1.4-1.4,2.6-2.6,3.4
			c-0.9,0.6-1.9,0.9-3,0.9c-1.4,0-2.7,0-4.1,0c-0.9,0-1.8,0-2.7,0c-0.9,0-1.8,0-2.7,0c-0.9,0-1.8,0-2.7,0c-0.9,0-1.8,0-2.7,0
			c-0.9,0-1.8,0-2.7,0c-1.1,0-2.2,0-3.2,0c-0.2,0-0.4,0-0.6,0c-1.2-0.1-2.4-0.5-3.3-1.3c-1.2-1-2-2.3-2.3-3.8
			c-0.1-0.5-0.1-1-0.1-1.4c0-1.1,0-2.2,0-3.4c0-1.1,0-2.3,0-3.4c0-1.1,0-2.3,0-3.4c0-1.1,0-2.2,0-3.2c0-1.1,0-2.3,0-3.4
			c0-1.1,0-2.2,0-3.3c0-1.1,0-2.3,0-3.4c0-1.1,0-2.3,0-3.4c0-1.1,0-2.2,0-3.3c0-1.1,0-2.3,0-3.4c0-1.1,0-2.3,0-3.4
			c0-0.8,0-1.6,0-2.5c0-1.6,0.5-3,1.5-4.2c0.9-1.1,2.1-1.9,3.5-2.1c0.4-0.1,0.7-0.1,1.1-0.1c1.5,0,3,0,4.6,0c1.5,0,3,0,4.5,0
			c1.5,0,3,0,4.6,0s3,0,4.6,0c1,0,1.9,0,2.9,0c1.6,0,3,0.6,4.1,1.7c1.1,1.1,1.7,2.4,1.9,3.9c0,0.4,0.1,0.7,0.1,1.1
			c0,1.1,0,2.3,0,3.4c0,1.1,0,2.3,0,3.4c0,1.1,0,2.2,0,3.3c0,1.1,0,2.3,0,3.4c0,1.1,0,2.3,0,3.4C80.5,64.3,80.5,65.1,80.5,66
			C80.5,66,80.5,66,80.5,66z M51.6,44.5c0,0.1,0,0.2,0,0.3c0,0.5,0,1,0,1.5c0,1.1,0,2.3,0,3.4c0,1.1,0,2.3,0,3.4c0,1.1,0,2.2,0,3.2
			c0,1.2,0,2.3,0,3.5c0,1.1,0,2.3,0,3.4c0,1.1,0,2.2,0,3.3c0,1.1,0,2.3,0,3.4c0,1.1,0,2.3,0,3.4c0,1.1,0,2.2,0,3.2
			c0,1.1,0,2.3,0,3.4c0,1.1,0,2.2,0,3.3c0,0.2,0,0.4,0,0.7c0,0.1,0,0.1,0,0.2c0.1,0,0.2,0,0.3,0c1.3,0,2.6,0,3.9,0
			c2.1,0,4.2,0,6.3,0c2,0,4.1,0,6.1,0c2.2,0,4.3,0,6.5,0c0.3,0,0.6,0,0.9,0c0.1,0,0.1,0,0.2,0c0-0.1,0-0.2,0-0.3c0-0.8,0-1.6,0-2.4
			c0-1.1,0-2.3,0-3.4c0-1.2,0-2.3,0-3.5c0-1.1,0-2.1,0-3.2c0-1.1,0-2.3,0-3.4c0-1.1,0-2.2,0-3.3c0-1.2,0-2.3,0-3.5
			c0-1.2,0-2.3,0-3.5c0-1.1,0-2.1,0-3.2c0-1.1,0-2.3,0-3.4c0-1.2,0-2.3,0-3.5c0-0.9,0-1.9,0-2.8c0-0.1,0-0.1,0-0.2c0,0-0.1,0-0.1,0
			c-8,0-16,0-24,0C51.7,44.5,51.6,44.5,51.6,44.5z M63.9,90.3c1.3,0,2.5-1.1,2.5-2.5c0-1.4-1.2-2.5-2.5-2.5c-1.4,0-2.5,1.1-2.5,2.5
			C61.4,89.2,62.5,90.3,63.9,90.3z M72,88.8c0.7,0,1.3,0,2,0c0.1,0,0.3,0,0.4,0c0.4-0.1,0.6-0.5,0.5-0.9c-0.1-0.4-0.4-0.7-0.7-0.7
			c-0.1,0-0.2,0-0.2,0c-1.2,0-2.5,0-3.7,0c-0.1,0-0.2,0-0.3,0c-0.1,0-0.2,0-0.2,0.1c-0.4,0.2-0.5,0.6-0.4,0.9
			c0.1,0.4,0.4,0.7,0.8,0.6c0.1,0,0.1,0,0.2,0C70.8,88.8,71.4,88.8,72,88.8z M56.1,88.8C56.1,88.8,56.1,88.8,56.1,88.8
			c0.7,0,1.3,0,2,0c0.1,0,0.3,0,0.4-0.1c0.5-0.2,0.6-0.9,0.2-1.3c-0.2-0.2-0.4-0.3-0.6-0.3c-0.8,0-1.7,0-2.5,0c-0.5,0-1,0-1.5,0
			c-0.1,0-0.2,0-0.3,0.1c-0.3,0.1-0.5,0.4-0.5,0.8c0,0.3,0.2,0.7,0.5,0.8c0.1,0,0.2,0,0.3,0C54.8,88.8,55.5,88.8,56.1,88.8z
			 M62.9,42.7c0.9,0,1.8,0,2.7,0c0.1,0,0.2,0,0.3,0c0.3-0.1,0.5-0.3,0.4-0.6c0-0.3-0.2-0.5-0.5-0.5c-0.1,0-0.1,0-0.2,0
			c-1.3,0-2.6,0-3.9,0c-0.5,0-1,0-1.6,0c-0.1,0-0.3,0-0.4,0.1c-0.2,0.2-0.3,0.3-0.2,0.6c0.1,0.2,0.2,0.4,0.5,0.4c0.1,0,0.2,0,0.2,0
			C61.1,42.7,62,42.7,62.9,42.7z"/>
	</g>
	<g>
		<path d="M59.5,7.7c2.9,0,5.8,0,8.7,0c0,5.6,0,11.2,0,16.8c-10.4-1-21.1,1.9-29.4,8.2c-8.3,6.1-14,15.4-16,25.5
			c-2.9,0.1-5.9,0-8.8,0c1.5-10.8,7-21,14.8-28.5c8.2-8,19.2-12.9,30.6-14C59.6,13,59.5,10.3,59.5,7.7z"/>
		<linearGradient id="SVGID_1_" gradientUnits="userSpaceOnUse" x1="71.7572" y1="43.2931" x2="122.2229" y2="43.2931">
			<stop  offset="0" style="stop-color:#8979E8"/>
			<stop  offset="0.1832" style="stop-color:#8576E4"/>
			<stop  offset="0.3697" style="stop-color:#796ED8"/>
			<stop  offset="0.5578" style="stop-color:#6461C4"/>
			<stop  offset="0.7471" style="stop-color:#484EA8"/>
			<stop  offset="0.9354" style="stop-color:#233685"/>
			<stop  offset="1" style="stop-color:#152D77"/>
		</linearGradient>
		<path class="st0" d="M71.8,16.2C82.4,17.7,92.5,23,100,30.8c8.2,8.2,13.1,19.4,14.3,30.8c2.7,0.2,5.3,0,8,0.1c0,2.9,0,5.8,0,8.7
			c-5.6,0-11.2,0-16.8,0c-0.1-2.1,0.5-4.2,0.1-6.3c-0.5-13.9-8.6-27.2-20.7-34.2c-4-2.4-8.5-4-13.1-4.9
			C71.7,22.1,71.8,19.2,71.8,16.2z"/>
		<linearGradient id="SVGID_2_" gradientUnits="userSpaceOnUse" x1="5.5517" y1="88.7055" x2="56.0167" y2="88.7055">
			<stop  offset="0" style="stop-color:#152D77"/>
			<stop  offset="6.457150e-02" style="stop-color:#233685"/>
			<stop  offset="0.2529" style="stop-color:#484EA8"/>
			<stop  offset="0.4422" style="stop-color:#6461C4"/>
			<stop  offset="0.6303" style="stop-color:#796ED8"/>
			<stop  offset="0.8168" style="stop-color:#8576E4"/>
			<stop  offset="1" style="stop-color:#8979E8"/>
		</linearGradient>
		<path class="st1" d="M5.6,61.7c5.6,0,11.2,0,16.8,0c-0.9,8.9,1.1,18.2,5.8,25.9c6,10.1,16.3,17.3,27.8,19.5c0.1,2.9,0,5.8,0,8.7
			c-10.7-1.5-20.7-6.8-28.2-14.5c-8.2-8.2-13.1-19.4-14.3-30.8c-2.7-0.2-5.3,0-8-0.1C5.6,67.4,5.6,64.6,5.6,61.7z"/>
		<path d="M104.9,73.9c2.9-0.1,5.9,0,8.8,0c-1.5,10.8-7,21-14.8,28.5c-8.2,8-19.2,12.9-30.6,14c-0.1,2.7,0,5.3-0.1,8
			c-2.9,0-5.8,0-8.7,0c0-5.6,0-11.2,0-16.8c10.4,1,21.1-1.9,29.4-8.2C97.2,93.2,102.9,83.9,104.9,73.9z"/>
	</g>
</g>
<path class="st2" d="M139.4,74.7H153c0.5,0,1,0,1.4-0.1L139.4,74.7L139.4,74.7z"/>
<path class="st2" d="M139.4,57.7L139.4,57.7l14.6,0.1c-0.3,0-0.7-0.1-1.1-0.1H139.4z"/>
</svg>
