<?xml version="1.0" encoding="utf-8"?>
<!-- Generator: Adobe Illustrator 26.0.1, SVG Export Plug-In . SVG Version: 6.00 Build 0)  -->
<svg version="1.1" id="Layer_1" xmlns="http://www.w3.org/2000/svg" xmlns:xlink="http://www.w3.org/1999/xlink" x="0px" y="0px"
	 width="651.2px" height="70.4px" viewBox="0 0 651.2 70.4" enable-background="new 0 0 651.2 70.4" xml:space="preserve">
<path fill-rule="evenodd" clip-rule="evenodd" fill="#03AA00" d="M17.9,51.5c2.4,1.6,5.1,2.2,7.8,2.3c5.8,0.3,11.3-1.2,16.6-3.5
	c5.1-2.2,9.7-5.1,14-8.8c0.2-0.2,0.4-0.3,0.5-0.5c0.6-1,1.5-1.6,2.4-2.4c0.5-0.5,0.9-1.2,1.6-1.5c3.6-3.9,6.6-8.3,7.6-14
	c0.3-1.7,0.3-3.4-0.2-5c-0.5-0.8-0.8-1.6-1.1-2.5c-0.9-1.6-2.2-2.5-3.6-3.4c-0.2-0.2-0.5-0.3-1-0.5c1.4-0.1,2.7-0.1,3.9-0.1
	c2.4,0.1,4.8,0.5,7,1.6c4.9,2.2,6.9,6.7,5.3,12.4c-1.2,4.2-3.4,7.6-6.1,10.7c-5.2,6.1-11.3,10.7-18,14.4c-6.3,3.5-12.9,6.1-20,7.4
	c-4.5,0.8-9.1,1.1-13.6-0.2c-1.8-0.5-3.6-1.4-5-2.8c-2.2-2.1-2.9-4.8-2.7-7.9c0-0.4,0.1-0.8,0.1-1.2c0.2-0.3,0.2,0.1,0.3,0.1
	c0,0.2,0,0.5,0.2,0.7c0.4,0.6,0.7,1.1,0.9,1.8c0,0.1,0,0.1,0.1,0.1c0.2,0.2,0.4,0.3,0.4,0.6l0,0C16.4,49.9,17.1,50.7,17.9,51.5"/>
<path fill-rule="evenodd" clip-rule="evenodd" fill="#ED1C24" d="M11.2,29.7c1.3,2.2,2.9,4,4.9,5.4c0.6,0.3,0.3,0.7,0,1.1
	c-2,2.6-3.7,5.5-4.6,8.8c-0.5,1.5-0.7,3.1-0.7,4.7c0.2,4,2,6.8,5.2,8.5c0.2,0.1,0.4,0.2,0.6,0.3c-0.1,0.3-0.3,0.2-0.4,0.2
	c-3.4,0.1-6.7-0.1-9.9-1.4c-1.9-0.8-3.6-2-4.9-3.9c-1.5-2.4-1.6-5.1-1-7.9c0.9-4,2.9-7.2,5.2-10.2c1.5-1.9,3.1-3.7,4.9-5.4
	C10.6,29.8,10.8,29.3,11.2,29.7"/>
<path fill-rule="evenodd" clip-rule="evenodd" fill="#00A2FE" d="M49.2,70.4c-1.2-0.1-2-0.6-2.4-1.5c-1.5-3-3.1-5.9-4.6-8.9
	c-0.2-0.4-0.2-0.6,0.3-0.8c3-0.9,5.9-2,8.8-3.4c0.4-0.2,0.6-0.1,0.8,0.3c1.2,2.3,2.4,4.6,3.6,6.9c0.9,1.7,0.5,3.2-1,4.2
	c-1.4,0.9-2.7,1.8-4.1,2.6C50,70.2,49.5,70.4,49.2,70.4"/>
<path fill-rule="evenodd" clip-rule="evenodd" fill="#ED1C24" d="M61.9,19.1c-2.5-1.8-5.2-2.3-8.1-2.5c-2.8-0.2-5.6,0.1-8.3,0.8
	c-0.5,0.1-0.7,0-0.7-0.6c0-1.3-0.3-2.6-0.6-3.8c-0.1-0.4-0.1-0.7,0.4-0.7c5.1-0.8,10.2-1.2,15.2,0.8c2.5,1,4.6,2.6,5.6,5.5
	c0.7,1.8,0.7,3.6,0.4,5.4c0,0.1,0,0.3-0.2,0.3c-0.1,0-0.1-0.2-0.2-0.3C65,23.6,65,23,64.7,22.6c-0.6-1.1-1.4-2-2.3-2.8
	C62.2,19.6,61.9,19.4,61.9,19.1"/>
<path fill-rule="evenodd" clip-rule="evenodd" fill="#00A2FE" d="M46,44.7c-0.9-1.7-1.7-3.3-2.6-5c-0.6-1.1-1.5-1.6-2.7-1.4
	c-0.3,0.1-0.4,0-0.6-0.3c-0.5-1.1-1-2.1-1.6-3.1c-0.1-0.5-0.3-0.8-0.5-1.3c-0.6-1.3-0.6-1.3,0.3-2.4c0.7-0.8,1.4-1.5,1.7-2.6
	c0.2-0.4,0.4-0.8,0.6-1.1c2-3.9,2.7-8,1.9-12.4C41,4.9,32.4-1.6,23.3,0.3C14.8,2.1,8.9,11.4,10.1,20.9c0.4,2.8,1.3,5.3,2.6,7.7
	c1.4,2.2,3.2,4,5.2,5.5c4.3,2.7,8.8,3.4,13.6,1.7c0.4-0.1,0.5,0.1,0.6,0.4c0.9,1.7,1.8,3.5,2.7,5.2c0.2,0.3,0.1,0.5-0.1,0.8
	c-0.7,1.1-0.8,2.2-0.2,3.4c0.6,1.2,1.2,2.3,1.8,3.5c0.2,0.4,0.4,0.4,0.7,0.3c3-1,5.8-2.3,8.7-3.8C46.2,45.3,46.2,45.1,46,44.7
	 M26.5,27.5c-4.6,0-8.2-4.1-8.2-9.2c0-5.1,3.7-9.2,8.2-9.2c4.5,0,8.2,4.1,8.2,9.2C34.7,23.4,31,27.5,26.5,27.5"/>
<path fill="#00A2FE" d="M91.2,57.5v-7.8c1.4,1.2,3,2.1,4.6,2.7c1.7,0.6,3.3,0.9,5,0.9c1,0,1.9-0.1,2.6-0.3c0.7-0.2,1.4-0.4,1.9-0.7
	c0.5-0.3,0.9-0.7,1.1-1.1c0.2-0.4,0.4-0.9,0.4-1.4c0-0.7-0.2-1.3-0.6-1.8c-0.4-0.5-0.9-1-1.6-1.5c-0.7-0.5-1.5-0.9-2.4-1.3
	c-0.9-0.4-1.9-0.9-3-1.3c-2.7-1.1-4.8-2.5-6.1-4.2c-1.3-1.6-2-3.6-2-6c0-1.8,0.4-3.4,1.1-4.7c0.7-1.3,1.7-2.4,3-3.2
	c1.3-0.8,2.7-1.5,4.4-1.9c1.7-0.4,3.4-0.6,5.3-0.6c1.8,0,3.4,0.1,4.8,0.3c1.4,0.2,2.7,0.6,3.9,1v7.3c-0.6-0.4-1.2-0.8-1.9-1.1
	c-0.7-0.3-1.4-0.6-2.1-0.8c-0.7-0.2-1.5-0.4-2.2-0.5c-0.7-0.1-1.4-0.1-2.1-0.1c-0.9,0-1.7,0.1-2.4,0.3c-0.7,0.2-1.4,0.4-1.9,0.7
	c-0.5,0.3-0.9,0.7-1.2,1.1c-0.3,0.4-0.4,0.9-0.4,1.5c0,0.6,0.2,1.1,0.5,1.6c0.3,0.5,0.7,0.9,1.3,1.3c0.6,0.4,1.3,0.8,2.1,1.2
	c0.8,0.4,1.7,0.8,2.8,1.2c1.4,0.6,2.7,1.2,3.8,1.9c1.1,0.7,2.1,1.4,2.9,2.2c0.8,0.8,1.4,1.8,1.8,2.8c0.4,1.1,0.6,2.3,0.6,3.7
	c0,2-0.4,3.6-1.1,4.9c-0.7,1.3-1.7,2.4-3,3.2c-1.3,0.8-2.7,1.4-4.4,1.8c-1.7,0.4-3.5,0.5-5.3,0.5c-1.9,0-3.7-0.2-5.5-0.5
	C94,58.7,92.5,58.2,91.2,57.5"/>
<polygon fill="#00A2FE" points="141.8,58.9 120.8,58.9 120.8,23.9 141,23.9 141,30.3 128.7,30.3 128.7,38.1 140.2,38.1 140.2,44.5 
	128.7,44.5 128.7,52.5 141.8,52.5 "/>
<path fill="#00A2FE" d="M162.2,59.5c-5,0-9.1-1.6-12.3-4.9c-3.2-3.3-4.7-7.5-4.7-12.8c0-5.5,1.6-10,4.8-13.4
	c3.2-3.4,7.5-5.1,12.7-5.1c5,0,9,1.6,12.1,4.9c3.1,3.3,4.6,7.6,4.6,12.9c0,5.5-1.6,9.9-4.8,13.3C171.5,57.8,167.4,59.5,162.2,59.5
	 M162.6,30.1c-2.8,0-5,1-6.6,3.1c-1.6,2.1-2.4,4.8-2.4,8.2c0,3.5,0.8,6.2,2.4,8.2c1.6,2,3.8,3,6.4,3c2.7,0,4.9-1,6.5-2.9
	c1.6-2,2.4-4.7,2.4-8.2c0-3.6-0.8-6.5-2.3-8.5C167.4,31.1,165.3,30.1,162.6,30.1"/>
<polygon fill="#00A2FE" points="208.8,58.9 187.8,58.9 187.8,23.9 207.9,23.9 207.9,30.3 195.6,30.3 195.6,38.1 207.1,38.1 
	207.1,44.5 195.6,44.5 195.6,52.5 208.8,52.5 "/>
<path fill="#00A2FE" d="M237.8,33.9L229.5,46l8.2,12.9h-8.9l-3.6-6.7c-0.3-0.5-0.6-1.3-1.1-2.3h-0.1c-0.2,0.7-0.6,1.4-1,2.2
	l-3.6,6.8h-8.9l8.4-12.5l-7.9-12.5h8.9l3.6,7c0.5,0.9,0.8,1.7,1,2.3h0.1c0.3-0.8,0.6-1.6,1-2.4l3.6-7H237.8z"/>
<path fill="#00A2FE" d="M249,56L249,56l-0.1,14.4h-7.7V33.9h7.7v3.8h0.1c1.9-2.9,4.6-4.4,8-4.4c3.2,0,5.7,1.1,7.5,3.3
	c1.8,2.2,2.6,5.2,2.6,9.1c0,4.2-1,7.5-3.1,10c-2.1,2.5-4.8,3.8-8.2,3.8C252.9,59.5,250.6,58.3,249,56 M248.8,45.7v2
	c0,1.7,0.5,3.1,1.4,4.2c0.9,1.1,2.1,1.6,3.6,1.6c1.8,0,3.1-0.7,4.1-2c1-1.4,1.5-3.3,1.5-5.8c0-4.4-1.7-6.6-5.1-6.6
	c-1.6,0-2.9,0.6-3.9,1.8C249.3,42.2,248.8,43.7,248.8,45.7"/>
<path fill="#00A2FE" d="M292.4,58.9h-7.3v-3.6H285c-1.7,2.8-4.2,4.2-7.4,4.2c-2.4,0-4.3-0.7-5.7-2.1c-1.4-1.4-2.1-3.2-2.1-5.5
	c0-4.9,2.9-7.6,8.6-8.4l6.8-0.9c0-2.7-1.5-4.1-4.4-4.1c-3,0-5.8,0.9-8.5,2.7v-5.8c1.1-0.6,2.5-1,4.4-1.5c1.9-0.4,3.6-0.6,5.1-0.6
	c7.1,0,10.7,3.6,10.7,10.7V58.9z M285.1,48.7V47l-4.5,0.6c-2.5,0.3-3.8,1.5-3.8,3.4c0,0.9,0.3,1.6,0.9,2.2c0.6,0.6,1.4,0.8,2.5,0.8
	c1.4,0,2.6-0.5,3.5-1.5C284.7,51.5,285.1,50.2,285.1,48.7"/>
<path fill="#00A2FE" d="M313.9,58.6c-1.1,0.6-2.9,0.9-5.2,0.9c-5.4,0-8.2-2.8-8.2-8.5V39.6h-4.1v-5.7h4.1v-5.4l7.7-2.2v7.6h5.6v5.7
	h-5.6v10.1c0,2.6,1,3.9,3.1,3.9c0.8,0,1.7-0.2,2.5-0.7V58.6z"/>
<path fill="#00A2FE" d="M340.3,48.6H324c0.3,3.6,2.5,5.4,6.9,5.4c2.8,0,5.2-0.7,7.3-2v5.6c-2.3,1.2-5.3,1.9-9,1.9
	c-4,0-7.2-1.1-9.4-3.4c-2.2-2.2-3.3-5.4-3.3-9.4c0-4.2,1.2-7.4,3.6-9.9c2.4-2.4,5.4-3.6,8.9-3.6c3.6,0,6.5,1.1,8.5,3.2
	c2,2.2,3,5.1,3,8.8V48.6z M333.2,43.8c0-3.6-1.4-5.4-4.3-5.4c-1.2,0-2.3,0.5-3.2,1.5c-0.9,1-1.5,2.3-1.6,3.8H333.2z"/>
<path fill="#03AA00" d="M357.4,25.6h10.8c5.9,0,9.1,3.1,9.1,7.6c0,3.7-2.2,6-4.8,6.7c2.2,0.6,5.9,2.8,5.9,7.6c0,6.2-4.6,8.9-10,8.9
	h-10.9V25.6z M367.4,38.9c5.3,0,7.4-2,7.4-5.6c0-3-2.1-5.5-6.4-5.5h-8.5v11.1H367.4z M359.8,54.3h8.7c4.1,0,7.4-2,7.4-6.6
	c0-3.9-2.5-6.6-8.7-6.6h-7.4V54.3z"/>
<path fill="#009444" d="M368.4,58.2h-12.7V23.9h12.5c6.6,0,10.8,3.7,10.8,9.3c0,2.7-1,5.1-2.8,6.6c2.1,1.6,3.9,4.1,3.9,7.7
	C380.1,54.1,375.5,58.2,368.4,58.2 M361.5,52.6h6.9c2.1,0,5.7-0.6,5.7-4.8c0-1.2,0-4.9-7-4.9h-5.7V52.6z M361.5,37.2h5.9
	c5.2,0,5.6-2,5.6-3.8c0-2.4-1.7-3.8-4.7-3.8h-6.8V37.2z"/>
<path fill="#03AA00" d="M399.5,52.3c0,1.9,0.2,3.5,0.3,4.2h-2.1c-0.2-0.5-0.3-1.5-0.4-3.4c-0.8,1.6-2.7,3.9-7.2,3.9
	c-5.1,0-7.3-3.3-7.3-6.6c0-4.8,3.7-7.1,10.4-7.1h4.2v-2.2c0-2.2-0.7-5.2-5.7-5.2c-4.5,0-5.1,2.3-5.6,4.1h-2.2
	c0.3-2.4,1.8-6.2,7.8-6.2c5,0,7.8,2.1,7.8,7V52.3z M397.3,45.3H393c-4.9,0-7.9,1.3-7.9,5.1c0,2.8,2,4.7,5.1,4.7
	c6.3,0,7.2-4.2,7.2-8.9V45.3z"/>
<path fill="#009444" d="M390.1,58.8c-6.3,0-9.1-4.2-9.1-8.4c0-3.3,1.6-8.8,12.1-8.8h2.4v-0.5c0-1.7-0.3-3.4-3.9-3.4
	c-3.2,0-3.5,1.2-3.9,2.9l-0.3,1.3h-5.5l0.2-1.9c0.2-1.8,1.5-7.7,9.6-7.7c6.2,0,9.6,3.1,9.6,8.7v11.4c0,1.9,0.2,3.3,0.3,3.9l0.4,2.1
	h-5.5l-0.4-1.1C394.7,58,392.8,58.8,390.1,58.8 M393,47c-6.2,0-6.2,2.2-6.2,3.3c0,1.8,1.2,2.9,3.3,2.9c3.9,0,5.3-1.5,5.4-6.3H393z"
	/>
<path fill="#03AA00" d="M406.8,40c0-1.9,0-3.8,0-5.6h2.2c0.1,0.7,0.1,3.6,0.1,4.2c1-2.2,2.8-4.7,7.3-4.7c3.9,0,7.4,2.2,7.4,8.3v14.3
	h-2.2V42.6c0-3.9-1.6-6.5-5.5-6.5c-5.2,0-7.1,4.4-7.1,9.2v11.2h-2.2V40z"/>
<path fill="#009444" d="M425.4,58.2h-5.7V42.6c0-4.2-2-4.7-3.7-4.7c-4.4,0-5.3,4-5.3,7.4v13H405V40c0-1.9,0-3.8,0-5.5l0-1.8h5.5
	l0.1,1.1c1.5-1.1,3.5-1.6,5.7-1.6c4.4,0,9.1,2.6,9.1,10V58.2z"/>
<path fill="#03AA00" d="M447.8,55c0,7.1-3.1,10.8-9.5,10.8c-5.7,0-8.1-3.2-8.6-6.6h2.2c0.8,3,3.3,4.5,6.5,4.5c5.7,0,7.3-3.7,7.3-9.3
	v-2.3c-1.2,2.9-3.4,4.4-7.4,4.4c-5.2,0-9.1-4.2-9.1-11c0-7.4,4.2-11.5,9.4-11.5c4.5,0,6.4,2.1,7.1,3.9c0-1.3,0.1-2.8,0.1-3.4h2.1
	c0,0.8-0.1,4.3-0.1,6.4V55z M431.5,45.4c0,5.2,2.8,9,7,9c5.5,0,7.2-3.7,7.2-9.4c0-5.8-1.8-9-7.1-9C433.6,36,431.5,40.4,431.5,45.4"
	/>
<path fill="#009444" d="M438.2,67.5c-5.7,0-9.6-3-10.4-8l-0.3-2h5.6l0.3,1.3c0.7,2.6,3,3.2,4.8,3.2c2.9,0,4.9-0.9,5.4-5
	c-1.5,0.9-3.3,1.3-5.5,1.3c-6.4,0-10.9-5.2-10.9-12.8c0-7.8,4.6-13.3,11.2-13.3c2.4,0,4.2,0.6,5.5,1.3l0.1-0.8h5.4v1.7
	c0,0.3,0,1,0,1.9c0,1.4-0.1,3.2-0.1,4.5V55C449.5,63.1,445.5,67.5,438.2,67.5 M438.6,37.7c-4.9,0-5.4,5.3-5.4,7.6
	c0,3.6,1.6,7.3,5.3,7.3c3.3,0,5.4-1.3,5.4-7.6C443.9,38.9,442,37.7,438.6,37.7"/>
<rect x="455" y="24" fill="#03AA00" width="2.2" height="32.5"/>
<rect x="453.2" y="22.3" fill="#009444" width="5.7" height="36"/>
<path fill="#03AA00" d="M479.2,52.3c0,1.9,0.2,3.5,0.3,4.2h-2.1c-0.2-0.5-0.3-1.5-0.4-3.4c-0.8,1.6-2.7,3.9-7.2,3.9
	c-5.1,0-7.3-3.3-7.3-6.6c0-4.8,3.7-7.1,10.4-7.1h4.2v-2.2c0-2.2-0.7-5.2-5.7-5.2c-4.5,0-5.1,2.3-5.6,4.1h-2.2
	c0.3-2.4,1.8-6.2,7.8-6.2c5,0,7.8,2.1,7.8,7V52.3z M477.1,45.3h-4.3c-4.9,0-7.9,1.3-7.9,5.1c0,2.8,2,4.7,5.1,4.7
	c6.3,0,7.2-4.2,7.2-8.9V45.3z"/>
<path fill="#009444" d="M469.8,58.8c-6.3,0-9.1-4.2-9.1-8.4c0-3.3,1.6-8.8,12.1-8.8h2.4v-0.5c0-1.7-0.3-3.4-3.9-3.4
	c-3.2,0-3.5,1.2-3.9,2.9l-0.3,1.3h-5.5l0.2-1.9c0.2-1.8,1.5-7.7,9.6-7.7c6.2,0,9.6,3.1,9.6,8.7v11.4c0,1.9,0.2,3.3,0.3,3.9l0.4,2.1
	h-5.5l-0.4-1.1C474.4,58,472.5,58.8,469.8,58.8 M472.7,47c-6.2,0-6.2,2.2-6.2,3.3c0,1.8,1.2,2.9,3.3,2.9c3.9,0,5.3-1.5,5.4-6.3
	H472.7z"/>
<path fill="#03AA00" d="M503.5,24v26.1c0,2.1,0,4.1,0,6.3h-2.1c-0.1-0.5-0.1-2.6-0.1-3.7c-1.1,2.7-3.6,4.2-7.4,4.2
	c-5.7,0-9.2-4.7-9.2-11.3c0-6.8,3.7-11.8,9.7-11.8c4.4,0,6.2,1.9,6.8,3.3V24H503.5z M487.1,45.7c0,6,3.1,9.3,6.9,9.3
	c5.8,0,7.4-4,7.4-10c0-5.7-1.4-8.9-7-8.9C490,36,487.1,39.5,487.1,45.7"/>
<path fill="#009444" d="M493.9,58.8c-6.5,0-10.9-5.2-10.9-13c0-8,4.7-13.6,11.5-13.6c2.2,0,3.8,0.4,5.1,1V22.3h5.7v27.9
	c0,2.1,0,4.1,0,6.3l0,1.8H500l-0.2-1C498.2,58.2,496.2,58.8,493.9,58.8 M494.4,37.7c-3.5,0-5.6,3-5.6,7.9c0,4.6,2,7.6,5.2,7.6
	c3.5,0,5.7-1.4,5.7-8.3C499.7,38.8,498,37.7,494.4,37.7"/>
<path fill="#03AA00" d="M511.2,45.7c0,5.7,2.9,9.2,7.1,9.2c4.1,0,5.6-2.3,6.3-4.1h2.2c-0.9,2.9-3.3,6.2-8.7,6.2
	c-6.7,0-9.3-5.8-9.3-11.4c0-6.3,3.1-11.7,9.6-11.7c6.8,0,8.9,5.9,8.9,10c0,0.6,0,1.2,0,1.8H511.2z M525.2,43.8
	c0-4.4-2.4-7.8-6.7-7.8c-4.5,0-6.6,3.2-7.1,7.8H525.2z"/>
<path fill="#009444" d="M518.3,58.8c-8.1,0-11-7.1-11-13.1c0-8.1,4.5-13.5,11.3-13.5c7.3,0,10.7,6.1,10.7,11.7c0,0.7,0,1.3,0,1.9
	l-0.1,1.6h-16c0.5,3.6,2.4,5.7,5.3,5.7c3.1,0,4.1-1.5,4.8-3.1l0.5-1h5.8l-0.7,2.3C527.7,54.1,525.2,58.8,518.3,58.8 M513.4,42.1h9.9
	c-0.5-2.3-1.9-4.3-4.8-4.3C516.7,37.7,514.4,38.2,513.4,42.1"/>
<path fill="#03AA00" d="M533.4,50.4c0.8,2.9,2.8,4.6,6.3,4.6c3.9,0,5.5-1.8,5.5-4.3c0-2.5-1.1-3.7-6-4.9c-5.7-1.4-7.1-3.1-7.1-6
	c0-3,2.3-5.9,7.3-5.9c5,0,7.4,3,7.7,6.2h-2.2c-0.4-1.9-1.9-4.1-5.6-4.1c-3.8,0-4.9,1.9-4.9,3.7c0,2,1.1,3,5.4,4.1
	c6.2,1.5,7.8,3.5,7.8,6.8c0,4-3.3,6.5-7.9,6.5c-5,0-7.8-2.6-8.5-6.6H533.4z"/>
<path fill="#009444" d="M539.6,58.8c-5.6,0-9.4-3-10.2-8.1l-0.3-2h5.6l0.3,1.3c0.6,2.2,2,3.3,4.6,3.3c3.8,0,3.8-1.8,3.8-2.5
	c0-1.3,0-2.1-4.7-3.2c-5.1-1.2-8.4-3-8.4-7.7c0-3.8,2.8-7.6,9-7.6c6.3,0,9,4.2,9.4,7.7l0.2,1.9h-5.6l-0.3-1.4
	c-0.3-1.3-1.2-2.8-3.9-2.8c-3.2,0-3.2,1.4-3.2,1.9c0,0.8,0,1.4,4.1,2.4c6.5,1.6,9.1,4,9.1,8.5C549.2,55.5,545.4,58.8,539.6,58.8"/>
<path fill="#03AA00" d="M554.8,24v14.1c1.2-2.3,3.4-4.2,7.3-4.2c3.1,0,7.4,1.6,7.4,8.6v14h-2.2V42.9c0-4.4-2-6.8-5.6-6.8
	c-4.4,0-6.9,2.7-6.9,8.1v12.3h-2.2V24H554.8z"/>
<path fill="#009444" d="M571.3,58.2h-5.7V42.9c0-5.1-2.9-5.1-3.9-5.1c-2.2,0-5.1,0.7-5.1,6.4v14h-5.7v-36h5.7v11.4
	c1.5-1,3.4-1.5,5.5-1.5c4.4,0,9.2,2.7,9.2,10.3V58.2z"/>
<polygon fill="#03AA00" points="588.9,25.6 591.3,25.6 591.3,54.3 607.9,54.3 607.5,56.5 588.9,56.5 "/>
<polygon fill="#009444" points="608.9,58.2 587.2,58.2 587.2,23.9 593.1,23.9 593.1,52.6 610,52.6 "/>
<path fill="#03AA00" d="M608.6,34.5h4.1v-6.9h2.2v6.9h5.2v2.1h-5.2v14.3c0,2.5,0.5,3.9,2.6,3.9c0.7,0,1.6,0,2.3-0.3v1.9
	c-0.7,0.3-1.8,0.4-2.7,0.4c-2.8,0-4.4-1.4-4.4-4.9V36.5h-4.1V34.5z"/>
<path fill="#009444" d="M617.1,58.5c-2.3,0-6.1-0.9-6.1-6.7V38.3h-4.1v-5.6h4.1v-6.9h5.7v6.9h5.2v5.6h-5.2v12.6
	c0,2.1,0.3,2.1,0.9,2.1c1,0,1.5-0.1,1.8-0.2l2.3-0.7v5.5l-1.1,0.4C619.7,58.4,618.6,58.5,617.1,58.5"/>
<path fill="#03AA00" d="M641.4,24v26.1c0,2.1,0,4.1,0,6.3h-2.1c-0.1-0.5-0.1-2.6-0.1-3.7c-1.1,2.7-3.6,4.2-7.4,4.2
	c-5.7,0-9.2-4.7-9.2-11.3c0-6.8,3.7-11.8,9.7-11.8c4.4,0,6.2,1.9,6.8,3.3V24H641.4z M625,45.7c0,6,3.1,9.3,6.9,9.3
	c5.8,0,7.4-4,7.4-10c0-5.7-1.4-8.9-7-8.9C627.9,36,625,39.5,625,45.7"/>
<path fill="#009444" d="M631.8,58.8c-6.5,0-10.9-5.2-10.9-13c0-8,4.7-13.6,11.5-13.6c2.2,0,3.8,0.4,5.1,1V22.3h5.7v27.9
	c0,2.1,0,4.1,0,6.3l0,1.8h-5.4l-0.2-1C636.2,58.2,634.2,58.8,631.8,58.8 M632.3,37.7c-3.5,0-5.6,3-5.6,7.9c0,4.6,2,7.6,5.2,7.6
	c3.5,0,5.7-1.4,5.7-8.3C637.6,38.8,635.9,37.7,632.3,37.7"/>
<rect x="647.3" y="50.8" fill="#03AA00" width="2.2" height="5.7"/>
<rect x="645.5" y="49.1" fill="#009444" width="5.7" height="9.2"/>
</svg>
